<?xml version="1.0" encoding="UTF-8"?>
<svg version="1.1" xmlns="http://www.w3.org/2000/svg" width="455" height="283">
<path d="M0 0 C3.95042893 1.6863025 6.46382601 0.90489399 10.6171875 0.1171875 C14.19235889 1.33139665 16.06046438 2.48862914 18.5546875 5.3046875 C19.6171875 8.1171875 19.6171875 8.1171875 18.8671875 11.8671875 C18.32581049 14.82522684 18.42848316 15.80877874 20.02734375 18.421875 C21.29786117 19.97154101 22.58451504 21.50811352 23.88671875 23.03125 C27.17890815 26.99971307 27.81673009 30.54206633 27.5546875 35.5546875 C26.64460768 41.59155033 24.03496519 45.12136054 19.37890625 48.96484375 C12.46359901 54.03033319 5.27416463 58.22929241 -3.3828125 59.1171875 C-3.8778125 60.6021875 -3.8778125 60.6021875 -4.3828125 62.1171875 C-23.42363807 66.5442869 -45.75765669 67.66895691 -64.3828125 61.1171875 C-64.3828125 60.1271875 -64.3828125 59.1371875 -64.3828125 58.1171875 C-65.5378125 58.1171875 -66.6928125 58.1171875 -67.8828125 58.1171875 C-76.70717535 57.13514394 -87.43043499 52.0094267 -93.3203125 45.3046875 C-96.32324966 40.66378462 -97.2013386 36.57096252 -96.3828125 31.1171875 C-94.5379047 26.14895031 -92.20533675 21.80364107 -88.5078125 17.9921875 C-86.16494873 15.45355428 -86.16494873 15.45355428 -86.46875 13.1875 C-86.60539063 12.50429688 -86.74203125 11.82109375 -86.8828125 11.1171875 C-87.55464316 7.58837998 -87.39871427 7.15016895 -85.6953125 3.6171875 C-83.70674472 1.55759944 -82.75602019 1.13515247 -79.8671875 0.99609375 C-78.90296875 1.05667969 -77.93875 1.11726563 -76.9453125 1.1796875 C-70.75733613 1.52809253 -67.09195379 -0.23442004 -61.72998047 -3.16796875 C-42.26198079 -13.58491643 -18.65026838 -10.15908928 0 0 Z M-65.3828125 28.1171875 C-67.70860351 31.60587401 -67.80146707 33.01437269 -67.3828125 37.1171875 C-66.41177462 39.57905329 -66.41177462 39.57905329 -64.3828125 41.1171875 C-60.73673961 41.73779565 -59.07652374 41.59183203 -56.0078125 39.4921875 C-54.18393872 37.16874737 -54.18393872 37.16874737 -53.8203125 34.1171875 C-54.12298673 30.91470907 -54.12298673 30.91470907 -56.8203125 28.7421875 C-60.18865052 26.60616827 -61.51273771 27.07887475 -65.3828125 28.1171875 Z M-11.3828125 28.1171875 C-13.20817049 30.76513143 -13.20817049 30.76513143 -14.3828125 34.1171875 C-13.56574188 37.50155763 -13.56574188 37.50155763 -11.3828125 40.1171875 C-8.22632184 41.4462362 -6.81795611 41.26223537 -3.5703125 40.1796875 C-2.8484375 39.8290625 -2.1265625 39.4784375 -1.3828125 39.1171875 C-0.32749654 34.34500234 -0.32749654 34.34500234 -1.3203125 29.6796875 C-4.57280162 27.21568059 -7.37688305 27.8545036 -11.3828125 28.1171875 Z " fill="#3EC0FC" transform="translate(266.3828125,46.8828125)"/>
<path d="M0 0 C1.05045549 5.05774866 1.05206635 9.77291149 0.87890625 14.8984375 C0.84348976 16.15087753 0.84348976 16.15087753 0.80735779 17.42861938 C0.73120145 20.07760691 0.64697262 22.72626594 0.5625 25.375 C0.50923113 27.17836971 0.45649112 28.98175512 0.40429688 30.78515625 C0.2756519 35.19030949 0.13976996 39.59518627 0 44 C-1.45792884 44.05399736 -2.91642712 44.09279177 -4.375 44.125 C-5.18710938 44.14820313 -5.99921875 44.17140625 -6.8359375 44.1953125 C-9 44 -9 44 -11 42 C-11.309375 41.01 -11.61875 40.02 -11.9375 39 C-12.75927075 35.72778248 -12.75927075 35.72778248 -16 34 C-16.495 38.95 -16.495 38.95 -17 44 C-19.97 44 -22.94 44 -26 44 C-26.76776475 39.9247366 -27.11902034 36.08994553 -27.09765625 31.9453125 C-27.09443359 30.83671875 -27.09121094 29.728125 -27.08789062 28.5859375 C-27.07951172 27.44382813 -27.07113281 26.30171875 -27.0625 25.125 C-27.05798828 23.9596875 -27.05347656 22.794375 -27.04882812 21.59375 C-27.03708781 18.72911355 -27.0206657 15.86458367 -27 13 C-29.06644439 15.06644439 -28.41695073 19.27127997 -28.5625 22.125 C-28.60568359 22.87265625 -28.64886719 23.6203125 -28.69335938 24.390625 C-28.88631799 27.90675976 -28.98866995 31.31853636 -28.86328125 34.84375 C-29.00824922 38.19043923 -29.22523809 39.14752869 -31.625 41.375 C-34.56214139 44.00444087 -37.01266144 44.81012674 -41 45 C-41 43.68 -41 42.36 -41 41 C-41.33 41.99 -41.66 42.98 -42 44 C-45.03499293 45.13812235 -47.07528062 45.41598781 -50.07641602 44.06591797 C-54.02826105 41.242194 -55.78487389 39.24201587 -56.63037109 34.3605957 C-56.85162054 29.96173051 -56.65023423 25.58291646 -56.4375 21.1875 C-56.36514991 18.90138132 -56.30403617 16.61519613 -56.24537659 14.32868958 C-56.2048565 12.91158722 -56.15405205 11.49473357 -56.09190369 10.07841492 C-55.87761155 6.41925982 -55.87761155 6.41925982 -57 3 C-56.34 3 -55.68 3 -55 3 C-54.67 2.01 -54.34 1.02 -54 0 C-48.25 -0.125 -48.25 -0.125 -46 1 C-46 2.32 -46 3.64 -46 5 C-45.34 5.33 -44.68 5.66 -44 6 C-44.66 6 -45.32 6 -46 6 C-46 14.91 -46 23.82 -46 33 C-45.34 33.33 -44.68 33.66 -44 34 C-43.375 37.0625 -43.375 37.0625 -43 40 C-42.34 40 -41.68 40 -41 40 C-41.33 38.68 -41.66 37.36 -42 36 C-40.515 35.505 -40.515 35.505 -39 35 C-38.67 34.01 -38.34 33.02 -38 32 C-38.66 31.67 -39.32 31.34 -40 31 C-39.34 31 -38.68 31 -38 31 C-38.03029297 30.25838623 -38.06058594 29.51677246 -38.09179688 28.75268555 C-38.22849037 25.39764885 -38.36425611 22.04257524 -38.5 18.6875 C-38.54769531 17.52025391 -38.59539062 16.35300781 -38.64453125 15.15039062 C-38.68964844 14.03212891 -38.73476562 12.91386719 -38.78125 11.76171875 C-38.82314453 10.73006592 -38.86503906 9.69841309 -38.90820312 8.63549805 C-39.09768771 3.19537542 -39.09768771 3.19537542 -38 1 C-34.44307323 0.14943055 -32.50729422 -0.16909807 -29 1 C-27.18255336 0.81409324 -25.36977136 0.57978979 -23.5625 0.3125 C-18.34944655 -0.22464421 -18.34944655 -0.22464421 -15.375 1.6875 C-14.0523768 3.91191175 -13.39622242 5.46417652 -13 8 C-12.814375 8.680625 -12.62875 9.36125 -12.4375 10.0625 C-12 12 -12 12 -12 15 C-11.34 15.33 -10.68 15.66 -10 16 C-9.67 16.33 -9.34 16.66 -9 17 C-9.0721875 16.31292969 -9.144375 15.62585938 -9.21875 14.91796875 C-9.3115625 14.01691406 -9.404375 13.11585938 -9.5 12.1875 C-9.5928125 11.29417969 -9.685625 10.40085938 -9.78125 9.48046875 C-10.06663534 6.24440284 -10.03785919 4.11357756 -9 1 C-5.65441284 -0.80842549 -3.59559792 -1.33170293 0 0 Z M-29 4 C-28.01 4.495 -28.01 4.495 -27 5 C-26.375 7.0625 -26.375 7.0625 -26 9 C-25.34 8.34 -24.68 7.68 -24 7 C-24.66 6.01 -25.32 5.02 -26 4 C-26.99 4 -27.98 4 -29 4 Z M-29 6 C-29.33 6.99 -29.66 7.98 -30 9 C-29.34 9 -28.68 9 -28 9 C-28.33 8.01 -28.66 7.02 -29 6 Z M-24 8 C-23 11 -23 11 -23 11 Z M-22 15 C-21.34 15.66 -20.68 16.32 -20 17 C-20 16.34 -20 15.68 -20 15 C-20.66 15 -21.32 15 -22 15 Z M-19 21 C-18 24 -18 24 -18 24 Z M-17 25 C-17 28 -17 28 -17 28 Z " fill="#191919" transform="translate(165,153)"/>
<path d="M0 0 C0.33 0.66 0.66 1.32 1 2 C2.98 1.67 4.96 1.34 7 1 C7.16918268 2.58306647 7.33523936 4.16646719 7.5 5.75 C7.5928125 6.63171875 7.685625 7.5134375 7.78125 8.421875 C8 11 8 11 8 15 C10.475 15.99 10.475 15.99 13 17 C12.34 17.66 11.68 18.32 11 19 C10.34 18.67 9.68 18.34 9 18 C9.495 21.465 9.495 21.465 10 25 C10.66 25 11.32 25 12 25 C12.33 21.37 12.66 17.74 13 14 C13.66 14 14.32 14 15 14 C14.97679687 13.38511719 14.95359375 12.77023438 14.9296875 12.13671875 C14.91164063 11.32847656 14.89359375 10.52023438 14.875 9.6875 C14.85179687 8.88699219 14.82859375 8.08648437 14.8046875 7.26171875 C15 5 15 5 17 2 C22.33333333 0.66666667 22.33333333 0.66666667 25 2 C26.57505185 6.4626469 25.33666313 9.5968744 24 14 C24 14.86625 24 15.7325 24 16.625 C24 19.5201902 23.15987846 21.35805463 22 24 C21.32204472 25.99620166 20.65266469 27.99538701 20 30 C20.66 30.33 21.32 30.66 22 31 C21.01 31.495 21.01 31.495 20 32 C19.59955696 33.65182755 19.28520405 35.32442621 19 37 C18.36119087 39.67408475 17.67745887 42.33532844 17 45 C16.67 44.34 16.34 43.68 16 43 C15.34 43 14.68 43 14 43 C14 43.66 14 44.32 14 45 C6.58358663 45.36474164 6.58358663 45.36474164 4 43.75 C3 42 3 42 3 38 C2.50430318 31.17764635 1.25734426 24.56336833 -0.55859375 17.97265625 C-1.22682538 14.98631136 -1.05858405 12.04637053 -1 9 C-1.99 9 -2.98 9 -4 9 C-4 9.66 -4 10.32 -4 11 C-10.435 11.495 -10.435 11.495 -17 12 C-17 14.31 -17 16.62 -17 19 C-14.36 19 -11.72 19 -9 19 C-7.76632058 21.46735884 -8 23.26809601 -8 26 C-7.67 26.66 -7.34 27.32 -7 28 C-7.99 28 -8.98 28 -10 28 C-10.33 28.66 -10.66 29.32 -11 30 C-11 29.34 -11 28.68 -11 28 C-12.423125 28.2475 -12.423125 28.2475 -13.875 28.5 C-17 29 -17 29 -19 29 C-18.67 29.33 -18.34 29.66 -18 30 C-17.63239269 32.32817964 -17.29758419 34.6618385 -17 37 C-15.515 36.505 -15.515 36.505 -14 36 C-12.48138245 35.90796257 -10.95889574 35.86998716 -9.4375 35.875 C-8.65246094 35.87242187 -7.86742187 35.86984375 -7.05859375 35.8671875 C-5 36 -5 36 -3 37 C-3.66 39.97 -4.32 42.94 -5 46 C-5.89203125 45.91621094 -6.7840625 45.83242187 -7.703125 45.74609375 C-8.87359375 45.64425781 -10.0440625 45.54242188 -11.25 45.4375 C-12.41015625 45.33308594 -13.5703125 45.22867188 -14.765625 45.12109375 C-17.83957139 44.85377482 -17.83957139 44.85377482 -20.109375 45.53515625 C-22 46 -22 46 -27 45 C-27.495 37.575 -27.495 37.575 -28 30 C-27.34 29.67 -26.68 29.34 -26 29 C-26.33 28.67 -26.66 28.34 -27 28 C-27.3840872 23.84541438 -27.47009573 19.66874736 -27.625 15.5 C-27.6765625 14.32050781 -27.728125 13.14101562 -27.78125 11.92578125 C-27.82507813 10.80558594 -27.86890625 9.68539062 -27.9140625 8.53125 C-27.9548291 7.49548828 -27.9955957 6.45972656 -28.03759766 5.39257812 C-28 3 -28 3 -27 2 C-24.47690571 1.92765321 -21.96851553 2.00364978 -19.4453125 2.0625 C-16.85988991 2.11545494 -16.85988991 2.11545494 -14 1 C-12.46050671 0.90817058 -10.91722145 0.86997648 -9.375 0.875 C-8.18003906 0.87113281 -8.18003906 0.87113281 -6.9609375 0.8671875 C-5 1 -5 1 -4 2 C-2.68 2 -1.36 2 0 2 C0 1.34 0 0.68 0 0 Z M-5 4 C-4.67 5.32 -4.34 6.64 -4 8 C-3.34 7.67 -2.68 7.34 -2 7 C-2 6.01 -2 5.02 -2 4 C-2.99 4 -3.98 4 -5 4 Z M-18 23 C-17 26 -17 26 -17 26 Z M11 26 C12 28 12 28 12 28 Z M12 32 C12.33 32.99 12.66 33.98 13 35 C13.33 34.01 13.66 33.02 14 32 C13.34 32 12.68 32 12 32 Z " fill="#212121" transform="translate(382,152)"/>
<path d="M0 0 C2.5 1.125 2.5 1.125 5 3 C5.3125 6.1875 5.3125 6.1875 5 9 C5.66 9.33 6.32 9.66 7 10 C7.33 10.66 7.66 11.32 8 12 C8 9.03 8 6.06 8 3 C8.66 3 9.32 3 10 3 C10.33 2.01 10.66 1.02 11 0 C20.41002278 -0.3690205 20.41002278 -0.3690205 25 2 C25.66 1.34 26.32 0.68 27 0 C33.14079422 -0.45487365 33.14079422 -0.45487365 36.125 1.125 C37.053125 1.558125 37.053125 1.558125 38 2 C38.763125 1.690625 39.52625 1.38125 40.3125 1.0625 C43.86078439 -0.34031011 46.29854221 0.31454485 50 1 C53.05270463 1.15811388 53.05270463 1.15811388 56 0 C57.9375 -0.203125 57.9375 -0.203125 60 -0.25 C60.680625 -0.27578125 61.36125 -0.3015625 62.0625 -0.328125 C64 0 64 0 65.76953125 1.06640625 C67.70261477 4.10410892 67.04202553 6.67447433 66.6875 10.1875 C66.56761719 11.45980469 66.44773437 12.73210937 66.32421875 14.04296875 C66.21722656 15.01878906 66.11023438 15.99460938 66 17 C62.87819599 17.96661363 60.47916205 17.98988909 57.25 17.5625 C56.45078125 17.46066406 55.6515625 17.35882813 54.828125 17.25390625 C54.22484375 17.17011719 53.6215625 17.08632812 53 17 C52.505 15.515 52.505 15.515 52 14 C51.46375 14.680625 50.9275 15.36125 50.375 16.0625 C48 18 48 18 44.9375 17.875 C42 17 42 17 39 15 C38.3125 12.875 38.3125 12.875 38 11 C38 12.32 38 13.64 38 15 C37.34 15 36.68 15 36 15 C36 15.66 36 16.32 36 17 C33.92446352 17.5534764 32.15634036 18 30 18 C29.195625 18.061875 28.39125 18.12375 27.5625 18.1875 C25 18 25 18 23.1875 16.5 C22.795625 16.005 22.40375 15.51 22 15 C21.67 15.515625 21.34 16.03125 21 16.5625 C18.17971282 18.58958141 16.25612152 17.94983751 12.9375 17.421875 C11 17 11 17 8 16 C5.83284443 16.87483915 5.83284443 16.87483915 4 18 C3.01 17.34 2.02 16.68 1 16 C-1.67145537 16.80161791 -1.67145537 16.80161791 -4 18 C-4.66 16.02 -5.32 14.04 -6 12 C-5.34 12 -4.68 12 -4 12 C-3.96261719 11.30132812 -3.92523438 10.60265625 -3.88671875 9.8828125 C-3.78810547 8.51769531 -3.78810547 8.51769531 -3.6875 7.125 C-3.62949219 6.22007812 -3.57148438 5.31515625 -3.51171875 4.3828125 C-3 2 -3 2 0 0 Z M37 5 C38 7 38 7 38 7 Z M24 10 C24 11.65 24 13.3 24 15 C24.33 15 24.66 15 25 15 C25 13.35 25 11.7 25 10 C24.67 10 24.34 10 24 10 Z " fill="#74BDE1" transform="translate(284,217)"/>
<path d="M0 0 C0.66 0.66 1.32 1.32 2 2 C4.7474668 2.02212131 7.4377627 1.80241746 10.17578125 1.58203125 C13.19180743 2.02838644 14.97334968 2.72076382 17.0246582 5.03149414 C19.39429926 9.81407633 18.87595503 15.59188117 18.9375 20.8125 C18.97939453 22.05837891 19.02128906 23.30425781 19.06445312 24.58789062 C19.2183968 31.03642011 19.28287821 36.91481972 17 43 C15.515 43.495 15.515 43.495 14 44 C13.34 44.66 12.68 45.32 12 46 C9.93359375 45.9765625 9.93359375 45.9765625 7.4375 45.625 C2.57480047 45.02335595 -2.10281772 44.92101319 -7 45 C-8.05032632 35.39701654 -8.07448035 25.87809052 -7.96289062 16.22851562 C-7.95451172 15.22369141 -7.94613281 14.21886719 -7.9375 13.18359375 C-7.92589844 12.28181396 -7.91429687 11.38003418 -7.90234375 10.45092773 C-7.90276327 8.01216507 -7.90276327 8.01216507 -8.62890625 5.80102539 C-8.75136719 5.20668701 -8.87382812 4.61234863 -9 4 C-7 2 -7 2 -3.375 1.875 C-1.704375 1.936875 -1.704375 1.936875 0 2 C0 1.34 0 0.68 0 0 Z M2 5 C3 7 3 7 3 7 Z M2 8 C2 19.22 2 30.44 2 42 C2.33 42 2.66 42 3 42 C3.33 40.35 3.66 38.7 4 37 C5.98 36.34 7.96 35.68 10 35 C10 27.41 10 19.82 10 12 C5.52297636 10.93462795 5.52297636 10.93462795 3 11 C2.67 10.01 2.34 9.02 2 8 Z " fill="#222222" transform="translate(333,152)"/>
<path d="M0 0 C1.17079102 0.06574219 1.17079102 0.06574219 2.36523438 0.1328125 C8.17495382 0.49372691 8.17495382 0.49372691 10.4375 1.625 C10.4375 2.615 10.4375 3.605 10.4375 4.625 C11.4275 4.625 12.4175 4.625 13.4375 4.625 C13.70515604 9.21371652 13.93797105 13.80243015 14.1394043 18.39453125 C14.21265253 19.95457311 14.29521322 21.51420784 14.38745117 23.07324219 C14.51883397 25.3218265 14.61604114 27.56977485 14.70703125 29.8203125 C14.75471146 30.5111795 14.80239166 31.20204651 14.85151672 31.91384888 C14.97106058 35.78310387 14.43807695 38.09545462 12.0456543 41.05029297 C9.4375 43.625 9.4375 43.625 7.4375 44.625 C5.72528352 44.5356419 4.01623928 44.37970457 2.3125 44.1875 C-2.35312067 43.7080291 -6.8756743 43.53656933 -11.5625 43.625 C-13.16750717 40.41498566 -12.66187579 36.92896233 -12.625 33.40625 C-12.62121338 32.59256958 -12.61742676 31.77888916 -12.61352539 30.94055176 C-12.59713236 27.45168007 -12.56898238 23.96292427 -12.54199219 20.47412109 C-12.52397034 17.93066951 -12.51183661 15.38723664 -12.5 12.84375 C-12.49170166 12.05101685 -12.48340332 11.25828369 -12.47485352 10.44152832 C-12.35816295 6.40322642 -12.35816295 6.40322642 -13.5625 2.625 C-12.9025 2.625 -12.2425 2.625 -11.5625 2.625 C-11.5625 1.965 -11.5625 1.305 -11.5625 0.625 C-7.63750058 -0.68333314 -4.06084979 -0.26959999 0 0 Z M-3.5625 1.625 C-3.2325 2.615 -2.9025 3.605 -2.5625 4.625 C-2.5625 3.635 -2.5625 2.645 -2.5625 1.625 C-2.8925 1.625 -3.2225 1.625 -3.5625 1.625 Z M-2.5625 5.625 C-1.5625 7.625 -1.5625 7.625 -1.5625 7.625 Z M-3.5625 7.625 C-3.5625 8.285 -3.5625 8.945 -3.5625 9.625 C-2.9025 9.295 -2.2425 8.965 -1.5625 8.625 C-2.2225 8.295 -2.8825 7.965 -3.5625 7.625 Z M2.4375 9.625 C3.0975 10.285 3.7575 10.945 4.4375 11.625 C4.4375 10.965 4.4375 10.305 4.4375 9.625 C3.7775 9.625 3.1175 9.625 2.4375 9.625 Z M-1.5625 9.625 C-4.27902366 12.34152366 -3.82035302 13.82587092 -3.828125 17.62109375 C-3.83070313 18.81927734 -3.83328125 20.01746094 -3.8359375 21.25195312 C-3.82820313 22.50943359 -3.82046875 23.76691406 -3.8125 25.0625 C-3.82023437 26.31611328 -3.82796875 27.56972656 -3.8359375 28.86132812 C-3.83335937 30.06080078 -3.83078125 31.26027344 -3.828125 32.49609375 C-3.82586914 33.59880615 -3.82361328 34.70151855 -3.82128906 35.83764648 C-3.76574581 38.83515306 -3.76574581 38.83515306 -1.5625 41.625 C-1.8925 39.315 -2.2225 37.005 -2.5625 34.625 C-1.386875 34.934375 -1.386875 34.934375 -0.1875 35.25 C1.111875 35.435625 1.111875 35.435625 2.4375 35.625 C4.62261386 33.85197834 4.62261386 33.85197834 4.68041992 31.59375 C4.67631104 30.7790625 4.67220215 29.964375 4.66796875 29.125 C4.66603516 28.238125 4.66410156 27.35125 4.66210938 26.4375 C4.64986328 25.509375 4.63761719 24.58125 4.625 23.625 C4.62435547 22.696875 4.62371094 21.76875 4.62304688 20.8125 C4.767409 16.06117451 4.767409 16.06117451 3.4375 11.625 C2.7775 11.625 2.1175 11.625 1.4375 11.625 C1.1075 10.965 0.7775 10.305 0.4375 9.625 C-0.2225 9.625 -0.8825 9.625 -1.5625 9.625 Z " fill="#1F1F1F" transform="translate(296.5625,153.375)"/>
<path d="M0 0 C3.63 0 7.26 0 11 0 C12.76408285 3.5281657 13.38889775 5.53498168 13.9375 9.3125 C15.20447133 17.49753703 16.83135862 25.60866777 18.5859375 33.703125 C19.14702912 36.81559552 19.06184811 39.84574658 19 43 C16.36 43 13.72 43 11 43 C11 42.34 11 41.68 11 41 C10.34 40.67 9.68 40.34 9 40 C9.33 39.01 9.66 38.02 10 37 C8.515 36.505 8.515 36.505 7 36 C7 35.67 7 35.34 7 35 C5.35 34.67 3.7 34.34 2 34 C0.95785309 38.61507774 0.95785309 38.61507774 2 43 C0.88625 43.144375 -0.2275 43.28875 -1.375 43.4375 C-4.82142047 43.78372035 -4.82142047 43.78372035 -7 45 C-7 44.34 -7 43.68 -7 43 C-8.485 43.495 -8.485 43.495 -10 44 C-9.48725306 39.64165099 -8.65787315 36.04106581 -7 32 C-6.6395076 30.00471648 -6.30959146 28.00381243 -6 26 C-3.04847802 7.62119504 -3.04847802 7.62119504 0 0 Z M5 16 C4.67 18.64 4.34 21.28 4 24 C4.99 24.33 5.98 24.66 7 25 C6.67 22.03 6.34 19.06 6 16 C5.67 16 5.34 16 5 16 Z M-1 24 C-1 24.33 -1 24.66 -1 25 C0.65 25 2.3 25 4 25 C4 24.67 4 24.34 4 24 C2.35 24 0.7 24 -1 24 Z " fill="#171717" transform="translate(88,154)"/>
<path d="M0 0 C1.77007714 -0.08114106 3.54122098 -0.13925505 5.3125 -0.1875 C6.29863281 -0.22230469 7.28476562 -0.25710937 8.30078125 -0.29296875 C11 0 11 0 12.85546875 1.51171875 C13.23316406 2.00285156 13.61085938 2.49398437 14 3 C13.34 3 12.68 3 12 3 C12.18175781 3.69222656 12.36351562 4.38445312 12.55078125 5.09765625 C18 26.30769231 18 26.30769231 18 34 C12.72 34 7.44 34 2 34 C2 36.97 2 39.94 2 43 C1.34 43 0.68 43 0 43 C-0.66 43.66 -1.32 44.32 -2 45 C-2 44.34 -2 43.68 -2 43 C-4.31 43 -6.62 43 -9 43 C-6.11941341 27.17597765 -6.11941341 27.17597765 -4.875 22.5 C-4.22360146 19.89440584 -3.79087388 17.58044027 -3.5 14.9375 C-3.1368821 12.07794653 -2.7124498 9.82158837 -1.875 7.125 C-0.65763277 4.12488867 -0.65763277 4.12488867 -2 2 C-1.34 2 -0.68 2 0 2 C0 1.34 0 0.68 0 0 Z M5 21 C5 22.32 5 23.64 5 25 C5.66 23.68 6.32 22.36 7 21 C6.34 21 5.68 21 5 21 Z " fill="#1F1F1F" transform="translate(262,154)"/>
<path d="M0 0 C0.99 0 1.98 0 3 0 C3 0.66 3 1.32 3 2 C-4.14253308 8.05400507 -12.56619728 13.03243049 -22 14 C-22.33 14.99 -22.66 15.98 -23 17 C-42.04082557 21.4270994 -64.37484419 22.55176941 -83 16 C-83 15.01 -83 14.02 -83 13 C-84.299375 12.9175 -85.59875 12.835 -86.9375 12.75 C-92.14094865 12.19661737 -96.37021568 10.35320007 -101 8 C-101 7.67 -101 7.34 -101 7 C-99.24929483 7.11470137 -97.49942464 7.24219028 -95.75 7.375 C-94.77546875 7.44460937 -93.8009375 7.51421875 -92.796875 7.5859375 C-90 8 -90 8 -88.22055054 9.00970459 C-85.27408782 10.32373391 -82.8973917 10.25424145 -79.67431641 10.25878906 C-77.7517955 10.26824554 -77.7517955 10.26824554 -75.79043579 10.27789307 C-74.3941433 10.2743124 -72.99785206 10.27021022 -71.6015625 10.265625 C-70.16433649 10.26697305 -68.72711093 10.26891475 -67.28988647 10.27142334 C-64.27882543 10.27436993 -61.26788316 10.27009326 -58.25683594 10.26074219 C-54.40792147 10.24936839 -50.55928659 10.25589677 -46.71038246 10.26788712 C-43.74201374 10.27513588 -40.77371058 10.27280362 -37.80533981 10.26763153 C-36.38684429 10.2663023 -34.96834272 10.26791717 -33.54985428 10.27259064 C-31.56139499 10.27770297 -29.5729147 10.26852192 -27.58447266 10.25878906 C-26.45514313 10.25719788 -25.3258136 10.25560669 -24.16226196 10.25396729 C-20.82948091 9.98630529 -18.11566815 9.18420295 -15 8 C-15 7.34 -15 6.68 -15 6 C-14.34 6 -13.68 6 -13 6 C-13 6.66 -13 7.32 -13 8 C-11.02463255 7.65213292 -11.02463255 7.65213292 -9 7 C-8.67 6.34 -8.34 5.68 -8 5 C-6.845 4.690625 -5.69 4.38125 -4.5 4.0625 C-2.7675 3.5365625 -2.7675 3.5365625 -1 3 C-0.67 2.01 -0.34 1.02 0 0 Z " fill="#43B7EA" transform="translate(285,92)"/>
<path d="M0 0 C0.99 0.33 1.98 0.66 3 1 C3 3.31 3 5.62 3 8 C3.33 5.69 3.66 3.38 4 1 C12.74473374 0.80125605 12.74473374 0.80125605 16.08203125 3.98828125 C18.68442255 8.07472462 18.62798771 11.25406749 18.5625 16 C18.58634766 16.7940625 18.61019531 17.588125 18.63476562 18.40625 C18.62395977 22.72859194 18.39226338 24.49594156 15.65625 28.01171875 C9.64602988 32.51054528 1.20089453 31.10641716 -6 31 C-6.81898622 27.42649959 -7.11811958 24.14340521 -7.09765625 20.48046875 C-7.09443359 19.45888672 -7.09121094 18.43730469 -7.08789062 17.38476562 C-7.07951172 16.32966797 -7.07113281 15.27457031 -7.0625 14.1875 C-7.05798828 13.11306641 -7.05347656 12.03863281 -7.04882812 10.93164062 C-7.03707729 8.28770317 -7.02064787 5.64388048 -7 3 C-5.1875 1.9375 -5.1875 1.9375 -3 1 C-2.01 1.33 -1.02 1.66 0 2 C0 1.34 0 0.68 0 0 Z M2 11 C2 16.94 2 22.88 2 29 C2.66 29 3.32 29 4 29 C4 26.69 4 24.38 4 22 C5.98 21.67 7.96 21.34 10 21 C10 18.03 10 15.06 10 12 C9.01 12 8.02 12 7 12 C6.67 11.67 6.34 11.34 6 11 C4.68 11 3.36 11 2 11 Z " fill="#1E1E1E" transform="translate(233,152)"/>
<path d="M0 0 C4.20440234 4.65487402 4.09744669 7.95830509 4 14 C0.93109813 15.53445094 -1.70094266 14.54984289 -5 14 C-5 13.34 -5 12.68 -5 12 C-5.66 12 -6.32 12 -7 12 C-7.474375 11.505 -7.94875 11.01 -8.4375 10.5 C-9.99969942 8.65373409 -9.99969942 8.65373409 -13 9 C-12.34 9.33 -11.68 9.66 -11 10 C-11 10.66 -11 11.32 -11 12 C-11.66 12 -12.32 12 -13 12 C-12.91918418 15.43846747 -12.80633848 18.87515312 -12.6875 22.3125 C-12.65366211 23.77719727 -12.65366211 23.77719727 -12.61914062 25.27148438 C-12.58369141 26.20927734 -12.54824219 27.14707031 -12.51171875 28.11328125 C-12.48553467 28.97735596 -12.45935059 29.84143066 -12.43237305 30.73168945 C-11.9152726 33.44449593 -10.97490916 34.1599279 -9 36 C-8.6875 39.0625 -8.6875 39.0625 -9 42 C-9.66 42.66 -10.32 43.32 -11 44 C-18.37297297 41.82162162 -18.37297297 41.82162162 -21 39 C-22.31124247 32.57668384 -22.32665754 26.03588293 -22.4375 19.5 C-22.48326172 18.39785156 -22.52902344 17.29570312 -22.57617188 16.16015625 C-22.66463087 9.75264837 -22.1885712 5.86155442 -17.70605469 1.12841797 C-14.53714243 -0.96756264 -11.69209988 -0.36315736 -8 0 C-4.64106891 -1.1196437 -3.32285646 -1.07992835 0 0 Z M-10 2 C-9.67 3.65 -9.34 5.3 -9 7 C-8.67 7 -8.34 7 -8 7 C-8 5.35 -8 3.7 -8 2 C-8.66 2 -9.32 2 -10 2 Z M-7 9 C-6.34 9.66 -5.68 10.32 -5 11 C-5 10.34 -5 9.68 -5 9 C-5.66 9 -6.32 9 -7 9 Z " fill="#191919" transform="translate(190,154)"/>
<path d="M0 0 C0.66 0.66 1.32 1.32 2 2 C2.556875 1.67 3.11375 1.34 3.6875 1 C6.42484273 -0.18371577 8.04084254 -0.36087286 11 0 C13.8125 1.5 13.8125 1.5 16 3 C16.66 2.34 17.32 1.68 18 1 C19.66608987 0.95615553 21.33380554 0.9603287 23 1 C24.34332728 0.70955086 25.68225804 0.39044206 27 0 C30.75473702 5.63210553 30.19540509 11.6245062 29 18 C27.20759337 17.88610125 25.41605165 17.75852313 23.625 17.625 C22.12839844 17.52058594 22.12839844 17.52058594 20.6015625 17.4140625 C18 17 18 17 16 15 C14.68 15 13.36 15 12 15 C12 15.66 12 16.32 12 17 C6.63247863 18.34188034 6.63247863 18.34188034 3.6875 16.75 C1.06592435 14.03132896 1.00091641 12.05406825 0.9375 8.3125 C0.958125 7.219375 0.97875 6.12625 1 5 C0.01 5 -0.98 5 -2 5 C-2.66 8.96 -3.32 12.92 -4 17 C-5.32 17.33 -6.64 17.66 -8 18 C-9.26237731 15.47524538 -9.09856404 13.68799534 -9.0625 10.875 C-9.05347656 9.96492187 -9.04445312 9.05484375 -9.03515625 8.1171875 C-9.02355469 7.41851562 -9.01195312 6.71984375 -9 6 C-9.99 5.67 -10.98 5.34 -12 5 C-12 3.68 -12 2.36 -12 1 C-7.99047425 -0.33650858 -4.17983803 -0.20225023 0 0 Z M14 4 C13.59250325 8.25731568 13.59250325 8.25731568 15.5 11.875 C15.995 12.24625 16.49 12.6175 17 13 C17 10.36 17 7.72 17 5 C16.01 4.67 15.02 4.34 14 4 Z M7 6 C7.33 6.99 7.66 7.98 8 9 C8.66 8.34 9.32 7.68 10 7 C9.01 6.67 8.02 6.34 7 6 Z " fill="#77B8DA" transform="translate(218,217)"/>
<path d="M0 0 C2.03125 0.26953125 2.03125 0.26953125 4.5 0.8125 C5.3146875 0.98394531 6.129375 1.15539062 6.96875 1.33203125 C7.97421875 1.66267578 7.97421875 1.66267578 9 2 C10.47308269 4.94616538 10.00294692 7.47762594 9.87890625 10.7578125 C9.85529526 11.42086395 9.83168427 12.08391541 9.80735779 12.76705933 C9.73073184 14.88659129 9.64670357 17.00575685 9.5625 19.125 C9.50927819 20.56117994 9.4565378 21.9973778 9.40429688 23.43359375 C9.27511856 26.95595436 9.1392997 30.47802352 9 34 C9.99 34.33 10.98 34.66 12 35 C11.401875 35.144375 10.80375 35.28875 10.1875 35.4375 C8.43849596 35.8872439 6.71322977 36.42892341 5 37 C6.32 37 7.64 37 9 37 C9.33 37.99 9.66 38.98 10 40 C9.67 40.66 9.34 41.32 9 42 C9.66 42 10.32 42 11 42 C10.67 40.35 10.34 38.7 10 37 C11.45736087 36.80508548 12.91594593 36.61930642 14.375 36.4375 C15.59316406 36.28087891 15.59316406 36.28087891 16.8359375 36.12109375 C19 36 19 36 21 37 C22.27536232 42.44927536 22.27536232 42.44927536 21 45 C17.7 45 14.4 45 11 45 C11 44.34 11 43.68 11 43 C10.34 43 9.68 43 9 43 C9 43.66 9 44.32 9 45 C6.36 45.33 3.72 45.66 1 46 C0.505 44.515 0.505 44.515 0 43 C-0.66 42.67 -1.32 42.34 -2 42 C-2 40 -2 40 0 37.875 C0.99 36.946875 0.99 36.946875 2 36 C1.34 35.67 0.68 35.34 0 35 C0 26.09 0 17.18 0 8 C-0.66 8 -1.32 8 -2 8 C-1.125 1.125 -1.125 1.125 0 0 Z " fill="#151616" transform="translate(56,152)"/>
<path d="M0 0 C1.30159548 2.376813 1.37835571 3.97232909 1.34863281 6.67993164 C1.34347656 7.60870117 1.33832031 8.5374707 1.33300781 9.49438477 C1.31238281 10.46182617 1.29175781 11.42926758 1.27050781 12.42602539 C1.26535156 13.39733398 1.26019531 14.36864258 1.25488281 15.36938477 C1.17499209 22.55455684 1.17499209 22.55455684 0.02050781 24.86352539 C0.68050781 25.19352539 1.34050781 25.52352539 2.02050781 25.86352539 C1.69050781 26.19352539 1.36050781 26.52352539 1.02050781 26.86352539 C0.78372065 29.55588315 0.59852756 32.22850695 0.45800781 34.92602539 C0.41482422 35.68463867 0.37164062 36.44325195 0.32714844 37.22485352 C0.22077148 39.10417977 0.12010847 40.98382783 0.02050781 42.86352539 C-2.94949219 42.86352539 -5.91949219 42.86352539 -8.97949219 42.86352539 C-9.01816406 41.27411133 -9.01816406 41.27411133 -9.05761719 39.65258789 C-9.11388999 38.26452538 -9.17123752 36.87650614 -9.22949219 35.48852539 C-9.24367187 34.78985352 -9.25785156 34.09118164 -9.27246094 33.37133789 C-9.33985001 31.08634893 -9.33985001 31.08634893 -9.97949219 27.86352539 C-11.8933756 26.29869045 -11.8933756 26.29869045 -13.97949219 25.86352539 C-14.30949219 26.52352539 -14.63949219 27.18352539 -14.97949219 27.86352539 C-14.97949219 24.23352539 -14.97949219 20.60352539 -14.97949219 16.86352539 C-12.99949219 16.86352539 -11.01949219 16.86352539 -8.97949219 16.86352539 C-9.30949219 11.25352539 -9.63949219 5.64352539 -9.97949219 -0.13647461 C-1.97949219 -1.13647461 -1.97949219 -1.13647461 0 0 Z M-7.97949219 25.86352539 C-7.97949219 26.52352539 -7.97949219 27.18352539 -7.97949219 27.86352539 C-7.31949219 27.53352539 -6.65949219 27.20352539 -5.97949219 26.86352539 C-6.63949219 26.53352539 -7.29949219 26.20352539 -7.97949219 25.86352539 Z M-5.97949219 25.86352539 C-4.49449219 26.85352539 -4.49449219 26.85352539 -2.97949219 27.86352539 C-2.97949219 27.20352539 -2.97949219 26.54352539 -2.97949219 25.86352539 C-3.96949219 25.86352539 -4.95949219 25.86352539 -5.97949219 25.86352539 Z " fill="#1D1D1D" transform="translate(222.9794921875,154.136474609375)"/>
<path d="M0 0 C1.051875 0.185625 2.10375 0.37125 3.1875 0.5625 C6.57119882 0.95079331 8.76425888 0.88247485 12 0 C14.09749995 2.35968744 14.96905704 3.54616994 15.1875 6.75 C15.0946875 7.86375 15.0946875 7.86375 15 9 C15.66 9 16.32 9 17 9 C17.309375 8.05125 17.61875 7.1025 17.9375 6.125 C19 3 19 3 20 1 C21.65 1 23.3 1 25 1 C26.63937746 3.98131513 27.51908077 6.73045528 28.1875 10.0625 C28.45626953 11.34833984 28.45626953 11.34833984 28.73046875 12.66015625 C29 15 29 15 28 18 C26.68 18 25.36 18 24 18 C23.34 17.34 22.68 16.68 22 16 C21.67 16.66 21.34 17.32 21 18 C20.0925 17.814375 19.185 17.62875 18.25 17.4375 C15.12189899 17.01640948 13.92888951 17.25426798 11 18 C9.29434533 18.11424167 7.58442864 18.17474307 5.875 18.1875 C4.57175781 18.20876953 4.57175781 18.20876953 3.2421875 18.23046875 C1 18 1 18 -1 16 C-1.23046875 12.8125 -1.23046875 12.8125 -1.1875 9 C-1.18105469 7.741875 -1.17460937 6.48375 -1.16796875 5.1875 C-1 2 -1 2 0 0 Z M15 11 C15.33 11.99 15.66 12.98 16 14 C16 13.01 16 12.02 16 11 C15.67 11 15.34 11 15 11 Z " fill="#6ABADE" transform="translate(176,217)"/>
<path d="M0 0 C3.96432569 0.81059695 5.71468939 2.55932896 8.4453125 5.5 C10.0000794 8.60953379 9.73175687 11.06266761 9.4453125 14.5 C7.71553393 17.89549127 6.37740147 19.92059334 3.1328125 21.9375 C-1.65539375 22.9396827 -5.21865817 22.33130714 -9.3671875 19.75 C-11.7664539 17.28218313 -12.7764974 15.84621742 -13.5546875 12.5 C-13.48002496 8.31889762 -12.92582063 6.06268571 -10.6171875 2.5625 C-6.85784985 0.03070117 -4.45781347 -0.21291049 0 0 Z " fill="#41C0F9" transform="translate(277.5546875,112.5)"/>
<path d="M0 0 C3.05357079 1.61320721 5.23833566 3.03060902 7.375 5.75 C8.33807442 9.2170679 8.7060047 12.47696665 8 16 C5.82425584 18.69105198 4.08934144 20.45532928 1 22 C-4.34243433 22.35032356 -7.64786539 22.4561069 -12 19 C-14.68121076 14.97818385 -14.81344335 11.72763609 -14 7 C-10.58559026 0.86929404 -6.81115864 -0.56759655 0 0 Z " fill="#3DBFF8" transform="translate(197,113)"/>
<path d="M0 0 C2.01822917 0.06510417 4.03645833 0.13020833 6.0546875 0.1953125 C7.22575942 2.53745633 7.18377617 3.92608066 7.1875 6.53515625 C7.19040039 7.87006104 7.19040039 7.87006104 7.19335938 9.23193359 C7.18884766 10.18922363 7.18433594 11.14651367 7.1796875 12.1328125 C7.17775391 13.10814941 7.17582031 14.08348633 7.17382812 15.08837891 C7.11912701 24.47721799 6.66043786 33.82781581 6.0546875 43.1953125 C3.4146875 43.1953125 0.7746875 43.1953125 -1.9453125 43.1953125 C-3.1767065 39.50113049 -2.58964014 36.9896864 -1.9453125 33.1953125 C-2.6053125 32.8653125 -3.2653125 32.5353125 -3.9453125 32.1953125 C-3.2853125 32.1953125 -2.6253125 32.1953125 -1.9453125 32.1953125 C-1.9453125 30.5453125 -1.9453125 28.8953125 -1.9453125 27.1953125 C-2.6053125 26.8653125 -3.2653125 26.5353125 -3.9453125 26.1953125 C-3.2853125 26.1953125 -2.6253125 26.1953125 -1.9453125 26.1953125 C-1.9453125 25.2053125 -1.9453125 24.2153125 -1.9453125 23.1953125 C-2.6053125 22.8653125 -3.2653125 22.5353125 -3.9453125 22.1953125 C-3.2853125 22.1953125 -2.6253125 22.1953125 -1.9453125 22.1953125 C-1.9453125 15.9253125 -1.9453125 9.6553125 -1.9453125 3.1953125 C-2.6053125 2.8653125 -3.2653125 2.5353125 -3.9453125 2.1953125 C-1.9453125 0.1953125 -1.9453125 0.1953125 0 0 Z " fill="#1D1D1D" transform="translate(199.9453125,153.8046875)"/>
<path d="M0 0 C2.5 1.125 2.5 1.125 5 3 C5.3125 6.1875 5.3125 6.1875 5 9 C5.66 9.33 6.32 9.66 7 10 C7.33 10.66 7.66 11.32 8 12 C8 9.03 8 6.06 8 3 C8.66 3 9.32 3 10 3 C10.33 2.01 10.66 1.02 11 0 C20.41002278 -0.3690205 20.41002278 -0.3690205 25 2 C25.66 1.34 26.32 0.68 27 0 C30.79877599 -0.35173852 33.14360153 -0.52701444 36.4375 1.5 C36.953125 1.995 37.46875 2.49 38 3 C37.67 3.99 37.34 4.98 37 6 C36.34 6 35.68 6 35 6 C35 5.01 35 4.02 35 3 C32.03 3 29.06 3 26 3 C26 3.66 26 4.32 26 5 C22.25 6.125 22.25 6.125 20 5 C19.54625 5.495 19.0925 5.99 18.625 6.5 C17 8 17 8 15 8 C14.87625 7.360625 14.7525 6.72125 14.625 6.0625 C14.41875 5.381875 14.2125 4.70125 14 4 C13.34 3.67 12.68 3.34 12 3 C12.33 6.63 12.66 10.26 13 14 C15.97 14.495 15.97 14.495 19 15 C19 14.34 19 13.68 19 13 C19.66 13 20.32 13 21 13 C20.67 14.32 20.34 15.64 20 17 C16.55195626 18.04486174 14.96825638 17.99053261 11.4375 16.9375 C8.14249712 15.68579197 8.14249712 15.68579197 5.5625 16.875 C5.046875 17.24625 4.53125 17.6175 4 18 C3.01 17.34 2.02 16.68 1 16 C-1.67145537 16.80161791 -1.67145537 16.80161791 -4 18 C-4.66 16.02 -5.32 14.04 -6 12 C-5.34 12 -4.68 12 -4 12 C-3.96261719 11.30132812 -3.92523438 10.60265625 -3.88671875 9.8828125 C-3.78810547 8.51769531 -3.78810547 8.51769531 -3.6875 7.125 C-3.62949219 6.22007812 -3.57148438 5.31515625 -3.51171875 4.3828125 C-3 2 -3 2 0 0 Z " fill="#74C0E1" transform="translate(284,217)"/>
<path d="M0 0 C3.95042893 1.6863025 6.46382601 0.90489399 10.6171875 0.1171875 C13.97951288 1.42475848 16.07668205 2.57668205 18.6171875 5.1171875 C18.2871875 6.1071875 17.9571875 7.0971875 17.6171875 8.1171875 C17.6171875 7.4571875 17.6171875 6.7971875 17.6171875 6.1171875 C14.9771875 5.4571875 12.3371875 4.7971875 9.6171875 4.1171875 C9.6171875 4.7771875 9.6171875 5.4371875 9.6171875 6.1171875 C7.6371875 6.4471875 5.6571875 6.7771875 3.6171875 7.1171875 C3.6171875 6.4571875 3.6171875 5.7971875 3.6171875 5.1171875 C2.8540625 5.0140625 2.0909375 4.9109375 1.3046875 4.8046875 C-1.65292404 4.0480892 -2.37512249 3.29945925 -4.3828125 1.1171875 C-6.48270902 -0.05855961 -6.48270902 -0.05855961 -8.3828125 -0.8828125 C-8.3828125 -1.5428125 -8.3828125 -2.2028125 -8.3828125 -2.8828125 C-15.17835962 -4.95422626 -21.43115234 -5.15980282 -28.5078125 -5.0703125 C-29.62003174 -5.05806641 -30.73225098 -5.04582031 -31.87817383 -5.03320312 C-34.07105016 -5.00374921 -36.26385933 -4.96862998 -38.45654297 -4.92724609 C-40.85318056 -4.89085463 -43.24049708 -4.89831122 -45.63671875 -4.93359375 C-54.5692034 -4.80148647 -63.90204097 -1.36358403 -70.3828125 5.1171875 C-72.04898365 5.15782582 -73.71669345 5.1599085 -75.3828125 5.1171875 C-72.68323791 -0.28196167 -61.8476854 -3.59359586 -56.33300781 -5.64550781 C-36.93653432 -12.04701589 -17.79704932 -9.69432768 0 0 Z " fill="#55BBE5" transform="translate(266.3828125,46.8828125)"/>
<path d="M0 0 C0.66 3.3 1.32 6.6 2 10 C4.97 10.495 4.97 10.495 8 11 C8.33 12.65 8.66 14.3 9 16 C7.1875 16.6875 7.1875 16.6875 5 17 C3.25 15.5625 3.25 15.5625 2 14 C1.34 14.66 0.68 15.32 0 16 C-1.66666667 15.66666667 -3.33333333 15.33333333 -5 15 C-5.66 15.66 -6.32 16.32 -7 17 C-8.9375 16.1875 -8.9375 16.1875 -11 15 C-12.06975936 11.79072191 -12.04882385 9.78616438 -11.8125 6.4375 C-11.75707031 5.46683594 -11.70164063 4.49617187 -11.64453125 3.49609375 C-11 1 -11 1 -9.18359375 -0.36328125 C-5.96604573 -1.30149293 -3.24477462 -0.62399512 0 0 Z " fill="#6CAFD1" transform="translate(154,218)"/>
<path d="M0 0 C1.34360596 0.07263062 1.34360596 0.07263062 2.71435547 0.14672852 C4.12998779 0.23071899 4.12998779 0.23071899 5.57421875 0.31640625 C14.81927077 0.80731436 24.00450274 0.99826863 33.26171875 0.87890625 C33.26171875 1.53890625 33.26171875 2.19890625 33.26171875 2.87890625 C35.24171875 2.87890625 37.22171875 2.87890625 39.26171875 2.87890625 C38.93171875 3.53890625 38.60171875 4.19890625 38.26171875 4.87890625 C34.86108204 5.80287525 31.54190691 6.03968468 28.03125 6.16015625 C26.58008789 6.21623047 26.58008789 6.21623047 25.09960938 6.2734375 C23.07097773 6.34415804 21.04233165 6.41446586 19.01367188 6.484375 C17.56831055 6.54044922 17.56831055 6.54044922 16.09375 6.59765625 C15.21436768 6.62794922 14.33498535 6.65824219 13.42895508 6.68945312 C11.21476118 6.74920855 11.21476118 6.74920855 9.26171875 7.87890625 C9.26171875 7.21890625 9.26171875 6.55890625 9.26171875 5.87890625 C8.56304687 5.90210937 7.864375 5.9253125 7.14453125 5.94921875 C6.23445312 5.96726562 5.324375 5.9853125 4.38671875 6.00390625 C3.02933594 6.03871094 3.02933594 6.03871094 1.64453125 6.07421875 C-0.73828125 5.87890625 -0.73828125 5.87890625 -2.73828125 3.87890625 C-5.05593854 3.1596333 -7.38923999 2.48791695 -9.73828125 1.87890625 C-9.73828125 1.54890625 -9.73828125 1.21890625 -9.73828125 0.87890625 C-6.37675026 0.10471516 -3.43993963 -0.20428024 0 0 Z " fill="#4BBDF4" transform="translate(214.73828125,104.12109375)"/>
<path d="M0 0 C3.96432569 0.81059695 5.71468939 2.55932896 8.4453125 5.5 C10.0000794 8.60953379 9.73175687 11.06266761 9.4453125 14.5 C7.5703125 17.9375 7.5703125 17.9375 5.4453125 20.5 C4.7853125 20.5 4.1253125 20.5 3.4453125 20.5 C3.4453125 19.84 3.4453125 19.18 3.4453125 18.5 C2.1253125 17.84 0.8053125 17.18 -0.5546875 16.5 C0.4353125 16.5 1.4253125 16.5 2.4453125 16.5 C2.7753125 15.84 3.1053125 15.18 3.4453125 14.5 C4.4353125 14.17 5.4253125 13.84 6.4453125 13.5 C5.95952707 10.37709365 5.4467113 7.50419641 4.4453125 4.5 C3.1253125 4.5 1.8053125 4.5 0.4453125 4.5 C0.4453125 3.84 0.4453125 3.18 0.4453125 2.5 C-3.3610332 3.17170806 -6.90675566 4.22746564 -10.5546875 5.5 C-10.2246875 9.46 -9.8946875 13.42 -9.5546875 17.5 C-5.5946875 18.49 -1.6346875 19.48 2.4453125 20.5 C1.7853125 21.16 1.1253125 21.82 0.4453125 22.5 C-4.80907906 22.30172107 -7.87534659 21.28446493 -11.5546875 17.5 C-13.39017022 14.41305179 -13.55675751 12.61592056 -13.4921875 9 C-11.47816914 1.4809981 -7.31850652 -0.34954061 0 0 Z " fill="#60B3D5" transform="translate(277.5546875,112.5)"/>
<path d="M0 0 C1.875 1.625 1.875 1.625 3 4 C3.1875 7.75 3.1875 7.75 3 11 C2.34 11 1.68 11 1 11 C0.67 11.66 0.34 12.32 0 13 C-0.99 13 -1.98 13 -3 13 C-3.33 13.99 -3.66 14.98 -4 16 C-5.32 15.67 -6.64 15.34 -8 15 C-8 10.05 -8 5.1 -8 0 C-5.03475663 -1.48262169 -3.14877613 -0.83538959 0 0 Z " fill="#72B2D4" transform="translate(112,218)"/>
<path d="M0 0 C0.66 0 1.32 0 2 0 C4.87815902 6.02405376 7 11.21649513 7 18 C5.35 17.67 3.7 17.34 2 17 C2 16.01 2 15.02 2 14 C1.608125 14.515625 1.21625 15.03125 0.8125 15.5625 C0.214375 16.036875 -0.38375 16.51125 -1 17 C-3.6875 16.6875 -3.6875 16.6875 -6 16 C-6 13.69 -6 11.38 -6 9 C-5.34 8.67 -4.68 8.34 -4 8 C-3.32060826 6.00428677 -2.65438441 4.00405227 -2 2 C-1.34 1.34 -0.68 0.68 0 0 Z " fill="#68C0EA" transform="translate(134,217)"/>
<path d="M0 0 C1.84041546 1.84041546 1.90153709 4.30932555 2.18359375 6.78515625 C1.89003223 10.32663249 0.24986258 12.28447357 -2.1640625 14.7890625 C-4 16 -4 16 -7.875 15.9375 C-8.90625 15.628125 -9.9375 15.31875 -11 15 C-11 12.03 -11 9.06 -11 6 C-10.34 6 -9.68 6 -9 6 C-9.33 4.68 -9.66 3.36 -10 2 C-6.34346173 -0.43769218 -4.30999899 -0.23944439 0 0 Z " fill="#1B1B1B" transform="translate(193,182)"/>
<path d="M0 0 C0.66 1.32 1.32 2.64 2 4 C3.32 3.34 4.64 2.68 6 2 C6 1.34 6 0.68 6 0 C7.65 0 9.3 0 11 0 C10.67 4.62 10.34 9.24 10 14 C6.42489889 14.89377528 4.75082437 15.0258444 1.25 14.5625 C0.45078125 14.46066406 -0.3484375 14.35882813 -1.171875 14.25390625 C-1.77515625 14.17011719 -2.3784375 14.08632812 -3 14 C-2.79375 13.38125 -2.5875 12.7625 -2.375 12.125 C-2.25125 11.42375 -2.1275 10.7225 -2 10 C-2.66 9.34 -3.32 8.68 -4 8 C-3.01 8 -2.02 8 -1 8 C-0.67 5.36 -0.34 2.72 0 0 Z " fill="#73C3EC" transform="translate(340,220)"/>
<path d="M0 0 C2.4375 1 2.4375 1 4 2 C4 2.99 4 3.98 4 5 C4.66 5.33 5.32 5.66 6 6 C5.45724757 10.55912044 4.7701729 14.27758016 2 18 C-1.90016337 19.26551791 -5.48716127 19.66202857 -9.28515625 18 C-9.85105469 17.67 -10.41695312 17.34 -11 17 C-11 16.34 -11 15.68 -11 15 C-11.66 15 -12.32 15 -13 15 C-13 13.35 -13 11.7 -13 10 C-12.34 10 -11.68 10 -11 10 C-9.375 12.5 -9.375 12.5 -8 15 C-5.36 14.67 -2.72 14.34 0 14 C1.19988045 8.71800407 1.19988045 8.71800407 -1 4 C-2.96361864 3.42251197 -2.96361864 3.42251197 -5.125 3.3125 C-6.40375 3.209375 -7.6825 3.10625 -9 3 C-9.66 4.32 -10.32 5.64 -11 7 C-11.33 5.68 -11.66 4.36 -12 3 C-7.89610799 0.01535127 -5.03483202 -0.457712 0 0 Z " fill="#5AB6DC" transform="translate(264,72)"/>
<path d="M0 0 C3.05357079 1.61320721 5.23833566 3.03060902 7.375 5.75 C8.33807442 9.2170679 8.7060047 12.47696665 8 16 C5.82425584 18.69105198 4.08934144 20.45532928 1 22 C-4.34243433 22.35032356 -7.64786539 22.4561069 -12 19 C-14.68121076 14.97818385 -14.81344335 11.72763609 -14 7 C-10.58559026 0.86929404 -6.81115864 -0.56759655 0 0 Z M-11 5 C-12.28786051 11.0571362 -12.28786051 11.0571362 -11.19921875 17 C-9.88523657 18.92919155 -9.88523657 18.92919155 -7 21 C-3.28926495 21.50196294 -3.28926495 21.50196294 0 21 C0 20.34 0 19.68 0 19 C0.99 18.67 1.98 18.34 3 18 C5.40450178 15.59549822 5.29609139 14.91766058 5.3125 11.625 C5.23462268 8.77560646 5.0561476 7.12477245 3.875 4.5 C-1.29527648 0.36377882 -5.72551328 2.36275664 -11 5 Z " fill="#5CB4D7" transform="translate(197,113)"/>
<path d="M0 0 C1.8253125 0.185625 1.8253125 0.185625 3.6875 0.375 C3.6875 0.705 3.6875 1.035 3.6875 1.375 C2.57375 1.478125 1.46 1.58125 0.3125 1.6875 C-0.88375 1.914375 -2.08 2.14125 -3.3125 2.375 C-4.3025 3.86 -4.3025 3.86 -5.3125 5.375 C-5.9725 5.375 -6.6325 5.375 -7.3125 5.375 C-7.04373047 6.35339844 -7.04373047 6.35339844 -6.76953125 7.3515625 C-5.03071814 14.49650363 -5.03071814 14.49650363 -6.375 18.6875 C-8.45235688 21.56899503 -10.73684918 23.93490975 -13.3125 26.375 C-14.67077701 29.09155403 -14.4448445 31.28289406 -14.4375 34.3125 C-14.44007813 35.37339844 -14.44265625 36.43429688 -14.4453125 37.52734375 C-14.43819346 40.45073057 -14.43819346 40.45073057 -13.3125 43.375 C-12.3225 43.705 -11.3325 44.035 -10.3125 44.375 C-10.3125 45.035 -10.3125 45.695 -10.3125 46.375 C-8.35102126 47.76438077 -6.35083424 49.1010411 -4.3125 50.375 C-5.3025 50.87 -5.3025 50.87 -6.3125 51.375 C-11.87645145 47.68820693 -15.7275007 44.62208163 -18.3125 38.375 C-19.35728175 31.29370145 -17.06169817 26.35754802 -13.3125 20.375 C-12.37903165 19.31099386 -11.42306867 18.26593633 -10.4375 17.25 C-8.09463623 14.71136678 -8.09463623 14.71136678 -8.3984375 12.4453125 C-8.53507813 11.76210938 -8.67171875 11.07890625 -8.8125 10.375 C-9.28141005 8.00768712 -9.47906015 6.78660415 -8.56640625 4.53125 C-6.10779243 1.11337374 -4.05778092 0.0144405 0 0 Z " fill="#5DB6DC" transform="translate(188.3125,47.625)"/>
<path d="M0 0 C0.54527344 0.17789063 1.09054688 0.35578125 1.65234375 0.5390625 C5.32292282 1.25974192 8.76909805 0.48911209 12.44140625 -0.0390625 C15 0 15 0 16.83984375 1.4765625 C17.22269531 1.97929687 17.60554688 2.48203125 18 3 C17.21625 3.721875 16.4325 4.44375 15.625 5.1875 C13.10702252 7.88533301 11.80241703 9.4337021 11 13 C11.77227173 15.76740335 11.77227173 15.76740335 13 18 C12.01 18 11.02 18 10 18 C9.67 17.34 9.34 16.68 9 16 C8.34 16.66 7.68 17.32 7 18 C6.01 14.37 5.02 10.74 4 7 C3.34 7 2.68 7 2 7 C0 4 0 4 0 0 Z M4 4 C4.99 4.495 4.99 4.495 6 5 C6.625 7.0625 6.625 7.0625 7 9 C7.66 8.34 8.32 7.68 9 7 C8.34 6.01 7.68 5.02 7 4 C6.01 4 5.02 4 4 4 Z M9 8 C10 11 10 11 10 11 Z " fill="#141515" transform="translate(132,153)"/>
<path d="M0 0 C1.90625 1.33984375 1.90625 1.33984375 2.375 3.3984375 C2.3853125 4.18347656 2.395625 4.96851563 2.40625 5.77734375 C2.52237266 9.50320129 2.52237266 9.50320129 4.96875 12.21484375 C5.608125 12.58609375 6.2475 12.95734375 6.90625 13.33984375 C6.90625 14.32984375 6.90625 15.31984375 6.90625 16.33984375 C3.43299819 17.49759435 0.54557552 17.40851027 -3.09375 17.33984375 C-4.41920416 14.68893544 -4.4683874 12.35304585 -4.71875 9.40234375 C-4.81414062 8.34144531 -4.90953125 7.28054687 -5.0078125 6.1875 C-5.09375 3.33984375 -5.09375 3.33984375 -4.09375 0.33984375 C-2.09375 -0.66015625 -2.09375 -0.66015625 0 0 Z " fill="#86C4E2" transform="translate(271.09375,217.66015625)"/>
<path d="M0 0 C1 3 1 3 0.35546875 4.9140625 C-0.26019432 7.12027385 -0.26019432 7.12027385 1.36328125 9.1484375 C2.00652344 9.88320312 2.64976562 10.61796875 3.3125 11.375 C7.39694649 16.38068891 9.27149157 20.02272949 8.9375 26.5625 C8.33164838 31.04580197 6.56914206 33.16298965 3 36 C3.66 32.7 4.32 29.4 5 26 C4.34 26 3.68 26 3 26 C3.33 22.7 3.66 19.4 4 16 C3.01 16 2.02 16 1 16 C0.35165346 14.730447 -0.29357815 13.45930294 -0.9375 12.1875 C-1.29714844 11.47980469 -1.65679687 10.77210937 -2.02734375 10.04296875 C-3 8 -3 8 -4 5 C-2.0625 2.3125 -2.0625 2.3125 0 0 Z " fill="#4ABCEB" transform="translate(285,56)"/>
<path d="M0 0 C0.94552734 0.16242188 0.94552734 0.16242188 1.91015625 0.328125 C4.07737407 3.57895173 4.18236643 4.62044653 4.16015625 8.390625 C4.1653125 9.26847656 4.17046875 10.14632812 4.17578125 11.05078125 C3.91015625 13.328125 3.91015625 13.328125 1.91015625 15.328125 C-1.65234375 15.078125 -1.65234375 15.078125 -5.08984375 14.328125 C-6.3353078 11.83719689 -5.86660155 10.91731767 -5.08984375 8.328125 C-5.74984375 7.998125 -6.40984375 7.668125 -7.08984375 7.328125 C-6.42984375 7.328125 -5.76984375 7.328125 -5.08984375 7.328125 C-5.74984375 5.348125 -6.40984375 3.368125 -7.08984375 1.328125 C-5.19856033 -0.56315842 -2.51916649 0.0914398 0 0 Z " fill="#1B1B1C" transform="translate(232.08984375,182.671875)"/>
<path d="M0 0 C0.99 0 1.98 0 3 0 C4.4783226 2.95664519 4.06032783 5.74229737 4 9 C4.66 9.33 5.32 9.66 6 10 C7.6875 11.25 7.6875 11.25 9 13 C8.6875 15.6875 8.6875 15.6875 8 18 C5.36 18 2.72 18 0 18 C-1.45958453 12.00484701 -2.41890976 7.06261443 -1 1 C-0.67 0.67 -0.34 0.34 0 0 Z " fill="#72BCD8" transform="translate(118,217)"/>
<path d="M0 0 C2.30320251 4.0306044 1.98271374 8.08274281 1.5 12.625 C1.17 13.285 0.84 13.945 0.5 14.625 C-0.16 14.625 -0.82 14.625 -1.5 14.625 C-1.5 15.285 -1.5 15.945 -1.5 16.625 C-7.00366792 16.94874517 -10.93672206 17.15786034 -15.5 13.625 C-15.17 11.975 -14.84 10.325 -14.5 8.625 C-13.96375 9.45 -13.4275 10.275 -12.875 11.125 C-10.71099949 13.90734672 -10.71099949 13.90734672 -7.4375 14.125 C-4.56658509 13.81935953 -4.56658509 13.81935953 -2.625 12.5 C-0.93429825 9.68216375 -0.96455771 7.83765373 -1.5 4.625 C-4.1522856 2.35161235 -5.82901036 1.66973264 -9.3125 1.4375 C-10.034375 1.499375 -10.75625 1.56125 -11.5 1.625 C-12.16 3.605 -12.82 5.585 -13.5 7.625 C-14.16 6.965 -14.82 6.305 -15.5 5.625 C-15.375 3.125 -15.375 3.125 -14.5 0.625 C-10.53247123 -2.70772417 -4.32633255 -2.3794829 0 0 Z " fill="#5BB6DE" transform="translate(212.5,73.375)"/>
<path d="M0 0 C0.90105469 0.00902344 1.80210937 0.01804687 2.73046875 0.02734375 C3.41753906 0.03894531 4.10460937 0.05054687 4.8125 0.0625 C4.8125 0.3925 4.8125 0.7225 4.8125 1.0625 C3.1625 1.3925 1.5125 1.7225 -0.1875 2.0625 C-0.5175 3.0525 -0.8475 4.0425 -1.1875 5.0625 C-13.44774294 7.91307567 -25.64193635 8.23178047 -38.1875 8.0625 C-37.8575 7.4025 -37.5275 6.7425 -37.1875 6.0625 C-36.54200195 6.03744385 -35.89650391 6.0123877 -35.23144531 5.98657227 C-32.29994106 5.87035567 -29.36873783 5.74774558 -26.4375 5.625 C-25.42171875 5.58568359 -24.4059375 5.54636719 -23.359375 5.50585938 C-21.88984375 5.44301758 -21.88984375 5.44301758 -20.390625 5.37890625 C-19.48989258 5.34224854 -18.58916016 5.30559082 -17.66113281 5.26782227 C-15.39153661 5.07943593 -13.37187113 4.68883499 -11.1875 4.0625 C-13.6625 3.5675 -13.6625 3.5675 -16.1875 3.0625 C-15.8575 2.4025 -15.5275 1.7425 -15.1875 1.0625 C-14.094375 1.083125 -13.00125 1.10375 -11.875 1.125 C-7.73731347 1.05486972 -4.18059144 -0.0542934 0 0 Z " fill="#5FBBE2" transform="translate(263.1875,103.9375)"/>
<path d="M0 0 C2.5 1.125 2.5 1.125 5 3 C5.3125 6.1875 5.3125 6.1875 5 9 C5.66 9.33 6.32 9.66 7 10 C7.33 10.99 7.66 11.98 8 13 C5.03 13 2.06 13 -1 13 C-1.33 13.66 -1.66 14.32 -2 15 C-2.99 15 -3.98 15 -5 15 C-5.33 14.01 -5.66 13.02 -6 12 C-5.34 12 -4.68 12 -4 12 C-3.96261719 11.30132812 -3.92523438 10.60265625 -3.88671875 9.8828125 C-3.78810547 8.51769531 -3.78810547 8.51769531 -3.6875 7.125 C-3.62949219 6.22007812 -3.57148438 5.31515625 -3.51171875 4.3828125 C-3 2 -3 2 0 0 Z " fill="#6CB1D8" transform="translate(284,217)"/>
<path d="M0 0 C9.41002278 -0.3690205 9.41002278 -0.3690205 14 2 C14.66 1.34 15.32 0.68 16 0 C19.79877599 -0.35173852 22.14360153 -0.52701444 25.4375 1.5 C25.953125 1.995 26.46875 2.49 27 3 C26.67 3.99 26.34 4.98 26 6 C25.34 6 24.68 6 24 6 C24 5.01 24 4.02 24 3 C21.03 3 18.06 3 15 3 C15 3.66 15 4.32 15 5 C11.25 6.125 11.25 6.125 9 5 C8.54625 5.495 8.0925 5.99 7.625 6.5 C6 8 6 8 4 8 C3.896875 7.360625 3.79375 6.72125 3.6875 6.0625 C3.3471875 5.0415625 3.3471875 5.0415625 3 4 C2.01 3.67 1.02 3.34 0 3 C0 3.66 0 4.32 0 5 C-0.99 4.67 -1.98 4.34 -3 4 C-2.34 3.67 -1.68 3.34 -1 3 C-0.67 2.01 -0.34 1.02 0 0 Z " fill="#7DB5C8" transform="translate(295,217)"/>
<path d="M0 0 C1 3 1 3 0 6 C0.66 6 1.32 6 2 6 C2.66 4.35 3.32 2.7 4 1 C4.33 1.66 4.66 2.32 5 3 C7.52733235 3.65555119 7.52733235 3.65555119 10 4 C10 5.32 10 6.64 10 8 C7 10 7 10 4 10 C3.67 9.01 3.34 8.02 3 7 C2.34 7 1.68 7 1 7 C1 8.32 1 9.64 1 11 C1.99 11 2.98 11 4 11 C4 11.66 4 12.32 4 13 C2.00045254 13.04254356 -0.00041636 13.04080783 -2 13 C-3 12 -3 12 -3.09765625 9.49609375 C-3.08605469 8.48675781 -3.07445312 7.47742188 -3.0625 6.4375 C-3.05347656 5.42558594 -3.04445313 4.41367188 -3.03515625 3.37109375 C-3.02355469 2.58863281 -3.01195312 1.80617187 -3 1 C-2.01 0.67 -1.02 0.34 0 0 Z " fill="#74C6EE" transform="translate(299,219)"/>
<path d="M0 0 C0.33 0 0.66 0 1 0 C1 3.96 1 7.92 1 12 C0.67 11.34 0.34 10.68 0 10 C-1.65 10 -3.3 10 -5 10 C-5.66 11.32 -6.32 12.64 -7 14 C-8.88838279 11.22296649 -8.99354164 9.81270766 -8.875 6.375 C-8 3 -8 3 -5.9375 1.5625 C-5.298125 1.376875 -4.65875 1.19125 -4 1 C-3.67 1.99 -3.34 2.98 -3 4 C-2.34 4 -1.68 4 -1 4 C-0.67 2.68 -0.34 1.36 0 0 Z " fill="#60BDF0" transform="translate(151,220)"/>
<path d="M0 0 C0 0.33 0 0.66 0 1 C-0.99257812 1.03738281 -1.98515625 1.07476562 -3.0078125 1.11328125 C-17.43783461 1.75910793 -34.13014036 3.13014036 -45 14 C-46.66617115 14.04063832 -48.33388095 14.042721 -50 14 C-47.30042541 8.60085083 -36.4648729 5.28921664 -30.95019531 3.23730469 C-20.68209284 -0.15152478 -10.72795419 -0.47797816 0 0 Z " fill="#6BB9D6" transform="translate(241,38)"/>
<path d="M0 0 C0.66 0.66 1.32 1.32 2 2 C5.08347826 2.16681109 5.08347826 2.16681109 8 2 C8.33 3.32 8.66 4.64 9 6 C7.35 5.67 5.7 5.34 4 5 C4.495 5.598125 4.99 6.19625 5.5 6.8125 C7 9 7 9 7 12 C7.66 11.34 8.32 10.68 9 10 C8.67 11.32 8.34 12.64 8 14 C4.125 13.125 4.125 13.125 3 12 C2.67 12.99 2.34 13.98 2 15 C2.99 15.33 3.98 15.66 5 16 C4.34 16.33 3.68 16.66 3 17 C1.68 15.68 0.36 14.36 -1 13 C-0.34 13 0.32 13 1 13 C0.67 8.71 0.34 4.42 0 0 Z " fill="#75C7E8" transform="translate(221,218)"/>
<path d="M0 0 C1.4783226 2.95664519 1.06032783 5.74229737 1 9 C-1.95664519 10.4783226 -4.74229737 10.06032783 -8 10 C-8.70074844 6.846632 -9 4.27275026 -9 1 C-6.04335481 -0.4783226 -3.25770263 -0.06032783 0 0 Z " fill="#1F1F1F" transform="translate(322,188)"/>
<path d="M0 0 C2.28877281 2.28877281 3.90978598 3.95532166 4.1953125 7.26171875 C4.17210937 8.06222656 4.14890625 8.86273438 4.125 9.6875 C4.10695312 10.49574219 4.08890625 11.30398437 4.0703125 12.13671875 C4.04710937 12.75160156 4.02390625 13.36648437 4 14 C3.34 14 2.68 14 2 14 C0.5216774 11.04335481 0.93967217 8.25770263 1 5 C-0.32 5.33 -1.64 5.66 -3 6 C-3 5.01 -3 4.02 -3 3 C-5.97 3.66 -8.94 4.32 -12 5 C-12 3.68 -12 2.36 -12 1 C-7.99047425 -0.33650858 -4.17983803 -0.20225023 0 0 Z " fill="#77B3D5" transform="translate(218,217)"/>
<path d="M0 0 C2.97 0 5.94 0 9 0 C9.33 3.3 9.66 6.6 10 10 C9.67 9.34 9.34 8.68 9 8 C6.69 8.33 4.38 8.66 2 9 C0 3.375 0 3.375 0 0 Z " fill="#1D1D1D" transform="translate(272,189)"/>
<path d="M0 0 C1.25 7.625 1.25 7.625 -1 11 C-4.76687864 11 -5.91190305 10.76462683 -9 9 C-8.67 7.35 -8.34 5.7 -8 4 C-7.01 4 -6.02 4 -5 4 C-5 3.01 -5 2.02 -5 1 C-2 0 -2 0 0 0 Z " fill="#6CC6F0" transform="translate(188,220)"/>
<path d="M0 0 C3.56365279 3.56365279 3.88559557 6.17741327 4 11 C3.80689484 13.38911501 3.44277533 15.63853157 3 18 C-0.63 17.67 -4.26 17.34 -8 17 C-7.34 15.68 -6.68 14.36 -6 13 C-5.01 13 -4.02 13 -3 13 C-3 13.66 -3 14.32 -3 15 C-2.01 15 -1.02 15 0 15 C0 10.05 0 5.1 0 0 Z " fill="#6CB0CE" transform="translate(244,217)"/>
<path d="M0 0 C0.33 0.66 0.66 1.32 1 2 C2.98 1.67 4.96 1.34 7 1 C7.625 3.875 7.625 3.875 8 7 C7.34 7.66 6.68 8.32 6 9 C5.01 9 4.02 9 3 9 C2.67 8.34 2.34 7.68 2 7 C1.67 7.66 1.34 8.32 1 9 C-0.65 9 -2.3 9 -4 9 C-3.34 7.35 -2.68 5.7 -2 4 C-2.99 3.67 -3.98 3.34 -5 3 C-3.35 2.67 -1.7 2.34 0 2 C0 1.34 0 0.68 0 0 Z " fill="#1C1F1D" transform="translate(382,152)"/>
<path d="M0 0 C1.09563581 3.25038623 1.00311616 5.04845763 -0.375 8.1875 C-1.72975275 10.73121408 -2.41225234 11.77717259 -5.1328125 12.80859375 C-9.45037792 13.38569408 -12.17919541 13.20564629 -16 11 C-16 10.34 -16 9.68 -16 9 C-16.66 9 -17.32 9 -18 9 C-18 7.35 -18 5.7 -18 4 C-17.34 4 -16.68 4 -16 4 C-15.67 4.804375 -15.34 5.60875 -15 6.4375 C-13.27365897 9.2048032 -13.27365897 9.2048032 -10.58203125 9.5546875 C-8.04963694 9.79042519 -5.54247723 9.94752861 -3 10 C-2.95101563 9.36191406 -2.90203125 8.72382812 -2.8515625 8.06640625 C-2.77679688 7.24011719 -2.70203125 6.41382812 -2.625 5.5625 C-2.55539062 4.73878906 -2.48578125 3.91507812 -2.4140625 3.06640625 C-2.27742188 2.38449219 -2.14078125 1.70257813 -2 1 C-1.34 0.67 -0.68 0.34 0 0 Z " fill="#49C0EE" transform="translate(269,78)"/>
<path d="M0 0 C1.051875 0.185625 2.10375 0.37125 3.1875 0.5625 C6.57119882 0.95079331 8.76425888 0.88247485 12 0 C12.66 0.99 13.32 1.98 14 3 C11.69 3.33 9.38 3.66 7 4 C7 4.99 7 5.98 7 7 C6.01 7.33 5.02 7.66 4 8 C3.01 9.485 3.01 9.485 2 11 C2 8.69 2 6.38 2 4 C1.34 3.67 0.68 3.34 0 3 C-0.33 3.66 -0.66 4.32 -1 5 C-0.67 3.35 -0.34 1.7 0 0 Z " fill="#66B4D6" transform="translate(176,217)"/>
<path d="M0 0 C3.63 0.33 7.26 0.66 11 1 C11 1.66 11 2.32 11 3 C14.63 3.66 18.26 4.32 22 5 C22 5.33 22 5.66 22 6 C24.64 6.33 27.28 6.66 30 7 C30 7.33 30 7.66 30 8 C22.06714481 8.36801906 15.4654395 7.77476512 8 5 C8 4.01 8 3.02 8 2 C5.36 1.67 2.72 1.34 0 1 C0 0.67 0 0.34 0 0 Z " fill="#65AFD1" transform="translate(194,103)"/>
<path d="M0 0 C0.66 0 1.32 0 2 0 C2.33 2.31 2.66 4.62 3 7 C2.34 7 1.68 7 1 7 C1 7.66 1 8.32 1 9 C-2.76133339 10.00302224 -6.11433294 10 -10 10 C-8.6875 7.0625 -8.6875 7.0625 -7 4 C-6.01 3.67 -5.02 3.34 -4 3 C-3.67 4.32 -3.34 5.64 -3 7 C-2.34 7 -1.68 7 -1 7 C-0.67 4.69 -0.34 2.38 0 0 Z " fill="#70A9CE" transform="translate(319,225)"/>
<path d="M0 0 C2.375 1.5 2.375 1.5 4 4 C4.0323094 6.82168797 3.55909501 9.20452496 3 12 C1.35 12.66 -0.3 13.32 -2 14 C-2 12.02 -2 10.04 -2 8 C-1.01 7.67 -0.02 7.34 1 7 C0.67 6.01 0.34 5.02 0 4 C-2.31 4 -4.62 4 -7 4 C-7 3.01 -7 2.02 -7 1 C-4.4086487 -0.29567565 -2.87704151 -0.34250494 0 0 Z " fill="#72ADD8" transform="translate(229,217)"/>
<path d="M0 0 C0.33 0 0.66 0 1 0 C1 4.29 1 8.58 1 13 C-3.13928919 12.17214216 -7.00922208 11.33025931 -11 10 C-10.6875 8.0625 -10.6875 8.0625 -10 6 C-9.01 5.67 -8.02 5.34 -7 5 C-7 6.32 -7 7.64 -7 9 C-4.49641128 8.51792644 -4.49641128 8.51792644 -2 7 C-0.62032476 3.46485707 -0.62032476 3.46485707 0 0 Z " fill="#61C0E3" transform="translate(310,220)"/>
<path d="M0 0 C1.65 0 3.3 0 5 0 C3.68 0.33 2.36 0.66 1 1 C1 1.66 1 2.32 1 3 C1.61875 3.12375 2.2375 3.2475 2.875 3.375 C5 4 5 4 7 6 C7.33 4.35 7.66 2.7 8 1 C8.33 1 8.66 1 9 1 C9 3.31 9 5.62 9 8 C5.87819599 8.96661363 3.47916205 8.98988909 0.25 8.5625 C-0.54921875 8.46066406 -1.3484375 8.35882813 -2.171875 8.25390625 C-2.77515625 8.17011719 -3.3784375 8.08632812 -4 8 C-2.68 7.34 -1.36 6.68 0 6 C0 4.02 0 2.04 0 0 Z " fill="#66B4D3" transform="translate(341,226)"/>
<path d="M0 0 C0.66 0 1.32 0 2 0 C2 3.96 2 7.92 2 12 C1.01 12 0.02 12 -1 12 C-1 11.34 -1 10.68 -1 10 C-1.99 10 -2.98 10 -4 10 C-4.33 10.66 -4.66 11.32 -5 12 C-5 8.37 -5 4.74 -5 1 C-4.34 2.32 -3.68 3.64 -3 5 C-2.01 5.33 -1.02 5.66 0 6 C-0.2784375 4.7934375 -0.2784375 4.7934375 -0.5625 3.5625 C-0.706875 2.716875 -0.85125 1.87125 -1 1 C-0.67 0.67 -0.34 0.34 0 0 Z " fill="#74C9F3" transform="translate(242,220)"/>
<path d="M0 0 C0.66 0.33 1.32 0.66 2 1 C3.27536232 6.44927536 3.27536232 6.44927536 2 9 C-0.64 9 -3.28 9 -6 9 C-6 8.01 -6 7.02 -6 6 C-5.34 6 -4.68 6 -4 6 C-4 4.68 -4 3.36 -4 2 C-2.68 2 -1.36 2 0 2 C0 1.34 0 0.68 0 0 Z " fill="#181818" transform="translate(75,188)"/>
<path d="M0 0 C2 1 2 1 4 3 C4.36933645 5.75372909 4.18336678 8.20365661 4 11 C3.01 11 2.02 11 1 11 C0.71125 10.360625 0.4225 9.72125 0.125 9.0625 C-0.82823451 6.84793921 -0.82823451 6.84793921 -3 6 C-3.33 6.99 -3.66 7.98 -4 9 C-4 6.36 -4 3.72 -4 1 C-3.67 1.99 -3.34 2.98 -3 4 C-2.34 4 -1.68 4 -1 4 C-0.67 2.68 -0.34 1.36 0 0 Z " fill="#5AC8E7" transform="translate(322,219)"/>
<path d="M0 0 C2.03125 0.26953125 2.03125 0.26953125 4.5 0.8125 C5.3146875 0.98394531 6.129375 1.15539062 6.96875 1.33203125 C7.97421875 1.66267578 7.97421875 1.66267578 9 2 C9.33 2.66 9.66 3.32 10 4 C5.25 6 5.25 6 3 6 C1.32254318 6.63903117 -0.34561387 7.30341637 -2 8 C-1.125 1.125 -1.125 1.125 0 0 Z " fill="#0B0C0C" transform="translate(56,152)"/>
<path d="M0 0 C0.99 0.33 1.98 0.66 3 1 C2.9278125 1.75925781 2.855625 2.51851562 2.78125 3.30078125 C2.6884375 4.29464844 2.595625 5.28851563 2.5 6.3125 C2.4071875 7.29863281 2.314375 8.28476563 2.21875 9.30078125 C1.95961143 12.04702139 1.95961143 12.04702139 2 15 C1.01 14.34 0.02 13.68 -1 13 C-1.328125 10.46875 -1.328125 10.46875 -1.25 7.5 C-1.23453125 6.5203125 -1.2190625 5.540625 -1.203125 4.53125 C-1 2 -1 2 0 0 Z " fill="#7FC9EB" transform="translate(176,220)"/>
<path d="M0 0 C-0.33 0.99 -0.66 1.98 -1 3 C-1.66 3 -2.32 3 -3 3 C-3.33 3.99 -3.66 4.98 -4 6 C-4.66 6 -5.32 6 -6 6 C-6.33 5.34 -6.66 4.68 -7 4 C-8.32 4.33 -9.64 4.66 -11 5 C-10.67 3.35 -10.34 1.7 -10 0 C-6.30581799 -1.231394 -3.7943739 -0.64432764 0 0 Z " fill="#6EADC8" transform="translate(154,218)"/>
<path d="M0 0 C0.33 0.66 0.66 1.32 1 2 C2.65 2 4.3 2 6 2 C6 2.33 6 2.66 6 3 C4.35 3.33 2.7 3.66 1 4 C1.66 5.65 2.32 7.3 3 9 C1.02 9.66 -0.96 10.32 -3 11 C-3.08096803 9.54257537 -3.13917774 8.08387193 -3.1875 6.625 C-3.22230469 5.81289062 -3.25710938 5.00078125 -3.29296875 4.1640625 C-3.19628906 3.44992188 -3.09960938 2.73578125 -3 2 C-2.01 1.34 -1.02 0.68 0 0 Z " fill="#1A1A1A" transform="translate(367,153)"/>
<path d="M0 0 C2.97 0 5.94 0 9 0 C5.63590717 3.36409283 4.52316837 3.43460395 0 4 C-0.99 4.33 -1.98 4.66 -3 5 C-2.34 7.64 -1.68 10.28 -1 13 C-1.66 13 -2.32 13 -3 13 C-3.33 10.03 -3.66 7.06 -4 4 C-3.34 4 -2.68 4 -2 4 C-1.34 2.68 -0.68 1.36 0 0 Z " fill="#47B8E9" transform="translate(185,49)"/>
<path d="M0 0 C1.65 0.33 3.3 0.66 5 1 C5 1.66 5 2.32 5 3 C5.99 3.33 6.98 3.66 8 4 C7.67 4.66 7.34 5.32 7 6 C6.278125 5.62875 5.55625 5.2575 4.8125 4.875 C1.39011689 3.81025859 0.11771927 4.39660152 -3 6 C-3.33 5.01 -3.66 4.02 -4 3 C-3.01 3 -2.02 3 -1 3 C-0.67 2.01 -0.34 1.02 0 0 Z " fill="#64AFD2" transform="translate(283,229)"/>
<path d="M0 0 C0.66 0 1.32 0 2 0 C4.42857143 6.28571429 4.42857143 6.28571429 3 10 C1.35 10 -0.3 10 -2 10 C-1.54177532 6.53058454 -1.10868317 3.32604951 0 0 Z " fill="#72C8F6" transform="translate(284,220)"/>
<path d="M0 0 C2.97 0.495 2.97 0.495 6 1 C6.33 2.65 6.66 4.3 7 6 C5.68 6.33 4.36 6.66 3 7 C0 3.375 0 3.375 0 0 Z " fill="#7CB8D7" transform="translate(156,228)"/>
<path d="M0 0 C1.98 0.99 3.96 1.98 6 3 C6 5.31 6 7.62 6 10 C5.01 10.495 5.01 10.495 4 11 C4 10.34 4 9.68 4 9 C2.68 9 1.36 9 0 9 C0 8.34 0 7.68 0 7 C0.66 7 1.32 7 2 7 C1.34 4.69 0.68 2.38 0 0 Z " fill="#6FBEDB" transform="translate(328,223)"/>
<path d="M0 0 C0.33 0.66 0.66 1.32 1 2 C3.52733235 2.65555119 3.52733235 2.65555119 6 3 C6 4.32 6 5.64 6 7 C3 9 3 9 0 9 C0 6.03 0 3.06 0 0 Z " fill="#69D3F1" transform="translate(303,220)"/>
<path d="M0 0 C0.99 0.33 1.98 0.66 3 1 C2.01 4.96 1.02 8.92 0 13 C-3 10 -3 10 -3.14453125 8.02734375 C-3.03496094 7.33769531 -2.92539063 6.64804688 -2.8125 5.9375 C-2.71582031 5.24527344 -2.61914062 4.55304688 -2.51953125 3.83984375 C-2 2 -2 2 0 0 Z " fill="#7EC5ED" transform="translate(145,221)"/>
<path d="M0 0 C0.99 0 1.98 0 3 0 C3 0.66 3 1.32 3 2 C-2.1541265 6.39708176 -7.33373883 9.69573151 -14 11 C-14 10.34 -14 9.68 -14 9 C-13.195625 8.71125 -12.39125 8.4225 -11.5625 8.125 C-8.8673532 7.26737432 -8.8673532 7.26737432 -8 5 C-6.845 4.690625 -5.69 4.38125 -4.5 4.0625 C-3.345 3.711875 -2.19 3.36125 -1 3 C-0.67 2.01 -0.34 1.02 0 0 Z " fill="#64B4D9" transform="translate(285,92)"/>
<path d="M0 0 C1.75070517 0.11470137 3.50057536 0.24219028 5.25 0.375 C6.22453125 0.44460937 7.1990625 0.51421875 8.203125 0.5859375 C10.89633189 0.98465249 12.66963279 1.63507063 15 3 C14.67 3.66 14.34 4.32 14 5 C8.58609132 4.53328373 4.79482068 3.75702189 0 1 C0 0.67 0 0.34 0 0 Z " fill="#52BDE7" transform="translate(184,99)"/>
<path d="M0 0 C0.33 0.66 0.66 1.32 1 2 C-0.2375 2.144375 -1.475 2.28875 -2.75 2.4375 C-5.56504499 2.78688502 -8.2701497 3.20379366 -11 4 C-10.6875 2.0625 -10.6875 2.0625 -10 0 C-6.26840331 -1.24386556 -3.81984796 -0.77811718 0 0 Z " fill="#74AEC7" transform="translate(334,218)"/>
<path d="M0 0 C0.33 0.99 0.66 1.98 1 3 C-2.63 3.66 -6.26 4.32 -10 5 C-10 3.68 -10 2.36 -10 1 C-6.61981469 -0.04005702 -3.5219721 -0.08004482 0 0 Z " fill="#67ADC2" transform="translate(216,217)"/>
<path d="M0 0 C2.31 0.33 4.62 0.66 7 1 C7.33 2.32 7.66 3.64 8 5 C7.34 5 6.68 5 6 5 C6.33 6.32 6.66 7.64 7 9 C6.34 9 5.68 9 5 9 C4.67 8.34 4.34 7.68 4 7 C3.34 7 2.68 7 2 7 C0 4 0 4 0 0 Z " fill="#0A0B0B" transform="translate(132,153)"/>
<path d="M0 0 C0.33 0.66 0.66 1.32 1 2 C1.99 2.33 2.98 2.66 4 3 C4 3.66 4 4.32 4 5 C4.99 5.33 5.98 5.66 7 6 C7 6.66 7 7.32 7 8 C8.96147874 9.38938077 10.96166576 10.7260411 13 12 C12.01 12.495 12.01 12.495 11 13 C9.72390677 12.09066991 8.45434447 11.17217147 7.1875 10.25 C6.47980469 9.73953125 5.77210938 9.2290625 5.04296875 8.703125 C2.93533281 6.94609007 1.45163277 5.32627585 0 3 C0 2.01 0 1.02 0 0 Z " fill="#63B6D9" transform="translate(171,86)"/>
<path d="M0 0 C-1.32103998 1.0161846 -2.65824027 2.01133494 -4 3 C-4.969375 3.721875 -5.93875 4.44375 -6.9375 5.1875 C-10.06135085 7.03630968 -11.46505137 7.41587631 -15 7 C-13.69662895 4.3932579 -12.27243094 3.80326388 -9.75 2.375 C-8.98171875 1.92898437 -8.2134375 1.48296875 -7.421875 1.0234375 C-4.75515341 -0.10346743 -2.86506237 -0.19303612 0 0 Z " fill="#5DB9E0" transform="translate(206,45)"/>
<path d="M0 0 C0.99 0.33 1.98 0.66 3 1 C3.33 4.63 3.66 8.26 4 12 C3.01 12 2.02 12 1 12 C0.01751476 7.9472484 -0.08159574 4.16138263 0 0 Z " fill="#61BDDC" transform="translate(152,220)"/>
<path d="M0 0 C1.98 0 3.96 0 6 0 C5.67 1.98 5.34 3.96 5 6 C4.34 6 3.68 6 3 6 C2.67 5.01 2.34 4.02 2 3 C1.67 5.64 1.34 8.28 1 11 C0.67 11 0.34 11 0 11 C0 7.37 0 3.74 0 0 Z " fill="#79C9F4" transform="translate(106,220)"/>
<path d="M0 0 C1.67542976 0.28604898 3.34385343 0.61781233 5 1 C4.67 2.65 4.34 4.3 4 6 C2.68 5.67 1.36 5.34 0 5 C-0.5625 3.0625 -0.5625 3.0625 -1 1 C-0.67 0.67 -0.34 0.34 0 0 Z " fill="#A24750" transform="translate(115,208)"/>
<path d="M0 0 C0.66 0 1.32 0 2 0 C2.45375 0.804375 2.9075 1.60875 3.375 2.4375 C4.73420995 5.15236193 4.73420995 5.15236193 7.1875 5.8125 C7.785625 5.874375 8.38375 5.93625 9 6 C9 6.66 9 7.32 9 8 C7.02 8 5.04 8 3 8 C2.67 7.01 2.34 6.02 2 5 C1.34 5 0.68 5 0 5 C0 3.35 0 1.7 0 0 Z " fill="#5AB7DE" transform="translate(251,82)"/>
<path d="M0 0 C0.66 0 1.32 0 2 0 C1.67 1.32 1.34 2.64 1 4 C-3.05431692 5.15837626 -5.21812119 4.83691257 -9 3 C-6 1 -6 1 -2.8125 1.375 C-1.884375 1.58125 -0.95625 1.7875 0 2 C0 1.34 0 0.68 0 0 Z " fill="#79B3D5" transform="translate(303,230)"/>
<path d="M0 0 C1.67542976 0.28604898 3.34385343 0.61781233 5 1 C4.67 2.32 4.34 3.64 4 5 C2.35 5 0.7 5 -1 5 C-1 1 -1 1 0 0 Z " fill="#6AB5D1" transform="translate(250,229)"/>
<path d="M0 0 C0.33 0 0.66 0 1 0 C1.33 3.3 1.66 6.6 2 10 C2.99 10 3.98 10 5 10 C5.33 9.34 5.66 8.68 6 8 C6.66 8.66 7.32 9.32 8 10 C7.67 10.99 7.34 11.98 7 13 C4.69 12.67 2.38 12.34 0 12 C0 8.04 0 4.08 0 0 Z " fill="#7ACDEE" transform="translate(119,220)"/>
<path d="M0 0 C-0.33 0.66 -0.66 1.32 -1 2 C-4.92773752 3.14170067 -8.74578979 3.10357788 -12.8125 3.0625 C-13.97394531 3.05347656 -15.13539063 3.04445313 -16.33203125 3.03515625 C-17.21246094 3.02355469 -18.09289062 3.01195313 -19 3 C-19 2.67 -19 2.34 -19 2 C-12.6221448 0.82706111 -6.49678438 -0.29530838 0 0 Z " fill="#4BB6E7" transform="translate(254,107)"/>
<path d="M0 0 C3.3 0 6.6 0 10 0 C10 0.33 10 0.66 10 1 C8.35 1.33 6.7 1.66 5 2 C4.67 2.99 4.34 3.98 4 5 C2.02 5 0.04 5 -2 5 C-2 3 -2 3 0 1 C0 0.67 0 0.34 0 0 Z " fill="#6AB4D0" transform="translate(258,104)"/>
<path d="M0 0 C0.66 0 1.32 0 2 0 C1.63076923 7.26153846 1.63076923 7.26153846 -1.5625 11 C-2.366875 11.66 -3.17125 12.32 -4 13 C-3.29666462 10.02277453 -2.41751463 7.14743457 -1.4375 4.25 C-1.16808594 3.45078125 -0.89867187 2.6515625 -0.62109375 1.828125 C-0.41613281 1.22484375 -0.21117187 0.6215625 0 0 Z " fill="#5CB3D3" transform="translate(292,79)"/>
<path d="M0 0 C0.5259375 0.7734375 0.5259375 0.7734375 1.0625 1.5625 C3.09468727 3.40146383 3.09468727 3.40146383 6.6875 2.6875 C7.780625 2.460625 8.87375 2.23375 10 2 C10.33 2.66 10.66 3.32 11 4 C9.68 4 8.36 4 7 4 C7 4.66 7 5.32 7 6 C5.1875 6.625 5.1875 6.625 3 7 C2.01 6.34 1.02 5.68 0 5 C-0.1875 2.375 -0.1875 2.375 0 0 Z " fill="#62B5DA" transform="translate(223,228)"/>
<path d="M0 0 C0.66 0.33 1.32 0.66 2 1 C2 2.32 2 3.64 2 5 C2.99 5.33 3.98 5.66 5 6 C3.68 6.99 2.36 7.98 1 9 C1 8.34 1 7.68 1 7 C0.01 7.33 -0.98 7.66 -2 8 C-1.125 1.125 -1.125 1.125 0 0 Z " fill="#0E0E0E" transform="translate(80,190)"/>
<path d="M0 0 C1 3 1 3 0.375 5 C0.25125 5.66 0.1275 6.32 0 7 C1.39588754 8.64594139 1.39588754 8.64594139 3 10 C3 10.66 3 11.32 3 12 C-0.82946843 10.54744301 -2.12050295 8.57104439 -4 5 C-2.68 3.35 -1.36 1.7 0 0 Z " fill="#56AFD4" transform="translate(285,56)"/>
<path d="M0 0 C1.98 0.99 1.98 0.99 4 2 C4 2.66 4 3.32 4 4 C4.66 4.33 5.32 4.66 6 5 C4.68 6.32 3.36 7.64 2 9 C2 8.34 2 7.68 2 7 C1.34 7 0.68 7 0 7 C0 4.69 0 2.38 0 0 Z " fill="#4ABEF4" transform="translate(280,51)"/>
<path d="M0 0 C0.99 0 1.98 0 3 0 C3 0.66 3 1.32 3 2 C4.32 2 5.64 2 7 2 C7 2.66 7 3.32 7 4 C7.66 4.33 8.32 4.66 9 5 C5.37 4.67 1.74 4.34 -2 4 C-1.34 2.68 -0.68 1.36 0 0 Z " fill="#69A9C3" transform="translate(238,230)"/>
<path d="M0 0 C1.9609375 0.71875 1.9609375 0.71875 4 2 C4.5390625 4.09375 4.5390625 4.09375 4.625 6.5 C4.67105646 10.19538385 4.67105646 10.19538385 7 13 C5.68 12.67 4.36 12.34 3 12 C3 9.36 3 6.72 3 4 C1.68 3.67 0.36 3.34 -1 3 C-0.67 2.01 -0.34 1.02 0 0 Z " fill="#80ABBF" transform="translate(269,217)"/>
<path d="M0 0 C0.598125 0.20625 1.19625 0.4125 1.8125 0.625 C0.8225 1.12 0.8225 1.12 -0.1875 1.625 C0.1425 2.615 0.4725 3.605 0.8125 4.625 C-1.1675 5.285 -3.1475 5.945 -5.1875 6.625 C-5.375 4.25 -5.375 4.25 -5.1875 1.625 C-2.1875 -0.375 -2.1875 -0.375 0 0 Z " fill="#6BBAD9" transform="translate(346.1875,218.375)"/>
<path d="M0 0 C1.9375 0.3125 1.9375 0.3125 4 1 C5 4 5 4 3.5625 7.1875 C2.7890625 8.5796875 2.7890625 8.5796875 2 10 C1.34 10 0.68 10 0 10 C0.185625 8.906875 0.37125 7.81375 0.5625 6.6875 C1.2578068 3.06375867 1.2578068 3.06375867 0 0 Z " fill="#47BEF0" transform="translate(194,78)"/>
<path d="M0 0 C2 0.6875 2 0.6875 4 2.6875 C3.01 3.1825 3.01 3.1825 2 3.6875 C1.34 3.3575 0.68 3.0275 0 2.6875 C-0.45375 3.1825 -0.9075 3.6775 -1.375 4.1875 C-3 5.6875 -3 5.6875 -5 5.6875 C-4.625 3.25 -4.625 3.25 -4 0.6875 C-2 -0.3125 -2 -0.3125 0 0 Z " fill="#72B7D8" transform="translate(304,219.3125)"/>
<path d="M0 0 C1.65 0 3.3 0 5 0 C5 2.97 5 5.94 5 9 C2.67527795 6.14693203 1.2491742 3.45925163 0 0 Z " fill="#61B9E7" transform="translate(312,220)"/>
<path d="M0 0 C3 1.5 3 1.5 6 3 C5.67 3.99 5.34 4.98 5 6 C2.69 6.33 0.38 6.66 -2 7 C-1.34 4.69 -0.68 2.38 0 0 Z " fill="#111111" transform="translate(83,176)"/>
<path d="M0 0 C0.33 0 0.66 0 1 0 C1.06058594 1.13179687 1.12117188 2.26359375 1.18359375 3.4296875 C1.26799917 4.91147145 1.35264717 6.3932416 1.4375 7.875 C1.47681641 8.62136719 1.51613281 9.36773437 1.55664062 10.13671875 C1.71573624 14.19986864 1.71573624 14.19986864 3 18 C2.34 18 1.68 18 1 18 C0.67 18.66 0.34 19.32 0 20 C-0.94148531 17.17554408 -1.07311695 15.85828382 -0.87890625 12.98828125 C-0.83056641 12.23095703 -0.78222656 11.47363281 -0.73242188 10.69335938 C-0.67634766 9.90767578 -0.62027344 9.12199219 -0.5625 8.3125 C-0.51029297 7.51521484 -0.45808594 6.71792969 -0.40429688 5.89648438 C-0.27480978 3.93063478 -0.13809959 1.96526335 0 0 Z " fill="#0D0E10" transform="translate(57,168)"/>
<path d="M0 0 C1.65 0 3.3 0 5 0 C5.33 1.32 5.66 2.64 6 4 C4.68 3.67 3.36 3.34 2 3 C1.67 3.99 1.34 4.98 1 6 C0.01 5.67 -0.98 5.34 -2 5 C-1.34 3.35 -0.68 1.7 0 0 Z " fill="#69A8C2" transform="translate(196,218)"/>
<path d="M0 0 C0.33 0.66 0.66 1.32 1 2 C0.01 3.485 0.01 3.485 -1 5 C-1 5.99 -1 6.98 -1 8 C-4 8 -4 8 -6 7 C-6 6.34 -6 5.68 -6 5 C-4.04072937 3.2856382 -2.04119788 1.61594832 0 0 Z " fill="#070808" transform="translate(60,187)"/>
<path d="M0 0 C0.99 0.33 1.98 0.66 3 1 C2.34 1 1.68 1 1 1 C1.515625 1.763125 2.03125 2.52625 2.5625 3.3125 C3.036875 4.199375 3.51125 5.08625 4 6 C3.67 6.99 3.34 7.98 3 9 C2.01 9.33 1.02 9.66 0 10 C0 6.7 0 3.4 0 0 Z " fill="#212121" transform="translate(182,154)"/>
<path d="M0 0 C2.31 0.33 4.62 0.66 7 1 C7 1.33 7 1.66 7 2 C9.64 2.33 12.28 2.66 15 3 C15 3.33 15 3.66 15 4 C13.06318839 4.08107583 11.1254066 4.13922475 9.1875 4.1875 C8.10855469 4.22230469 7.02960938 4.25710937 5.91796875 4.29296875 C3 4 3 4 1.11328125 2.55078125 C0 1 0 1 0 0 Z " fill="#58B2D4" transform="translate(209,107)"/>
<path d="M0 0 C1.32 0.66 2.64 1.32 4 2 C3.01 2.495 3.01 2.495 2 3 C1.53476937 4.89533342 1.53476937 4.89533342 1.375 7.0625 C1.25125 8.361875 1.1275 9.66125 1 11 C-0.98362069 8.08291076 -0.9876191 6.87619096 -0.625 3.25 C-0.41875 2.1775 -0.2125 1.105 0 0 Z " fill="#69C0E6" transform="translate(212,221)"/>
<path d="M0 0 C0.53625 0.37125 1.0725 0.7425 1.625 1.125 C-1.01404371 2.53877341 -3.44620629 3.49740135 -6.375 4.125 C-6.375 3.465 -6.375 2.805 -6.375 2.125 C-7.035 1.795 -7.695 1.465 -8.375 1.125 C-2.95961538 -1.09038462 -2.95961538 -1.09038462 0 0 Z " fill="#6EACC0" transform="translate(188.375,217.875)"/>
<path d="M0 0 C-0.66 1.98 -1.32 3.96 -2 6 C-2.99 6 -3.98 6 -5 6 C-5.33 4.35 -5.66 2.7 -6 1 C-4 0 -4 0 0 0 Z " fill="#191919" transform="translate(319,188)"/>
<path d="M0 0 C0.66 0 1.32 0 2 0 C2 2.31 2 4.62 2 7 C0.68 6.67 -0.64 6.34 -2 6 C-1.125 1.125 -1.125 1.125 0 0 Z " fill="#72B2CF" transform="translate(139,228)"/>
<path d="M0 0 C2.64 0 5.28 0 8 0 C8 0.99 8 1.98 8 3 C5.36 3 2.72 3 0 3 C0 2.01 0 1.02 0 0 Z " fill="#68AAC1" transform="translate(118,232)"/>
<path d="M0 0 C0.33 0.66 0.66 1.32 1 2 C1.66 2.33 2.32 2.66 3 3 C-1.455 3.495 -1.455 3.495 -6 4 C-6 3.01 -6 2.02 -6 1 C-4.02 0.67 -2.04 0.34 0 0 Z " fill="#69A4C2" transform="translate(275,231)"/>
<path d="M0 0 C0.33 0 0.66 0 1 0 C1.28571429 7.42857143 1.28571429 7.42857143 -1 11 C-1.99 11 -2.98 11 -4 11 C-3.67 10.01 -3.34 9.02 -3 8 C-2.34 8 -1.68 8 -1 8 C-0.67 5.36 -0.34 2.72 0 0 Z " fill="#75A9C3" transform="translate(214,224)"/>
<path d="M0 0 C0.33 0 0.66 0 1 0 C1 3.96 1 7.92 1 12 C-0.33333333 9.33333333 -1.66666667 6.66666667 -3 4 C-2.34 4 -1.68 4 -1 4 C-0.67 2.68 -0.34 1.36 0 0 Z " fill="#7ACCFA" transform="translate(151,220)"/>
<path d="M0 0 C0.66 0 1.32 0 2 0 C4 3 4 3 4 7 C3.34 7 2.68 7 2 7 C1.67 6.01 1.34 5.02 1 4 C-0.32 4.33 -1.64 4.66 -3 5 C-1.125 1.125 -1.125 1.125 0 0 Z " fill="#61A8C3" transform="translate(134,217)"/>
<path d="M0 0 C1.32 0 2.64 0 4 0 C3.67 1.98 3.34 3.96 3 6 C2.34 6 1.68 6 1 6 C1 5.34 1 4.68 1 4 C-0.32 3.34 -1.64 2.68 -3 2 C-2.01 2 -1.02 2 0 2 C0 1.34 0 0.68 0 0 Z " fill="#54B9E8" transform="translate(280,127)"/>
<path d="M0 0 C0.33 0.66 0.66 1.32 1 2 C1.99 2 2.98 2 4 2 C3.34 4.64 2.68 7.28 2 10 C0 8 0 8 -0.1953125 6.0546875 C-0.13020833 4.03645833 -0.06510417 2.01822917 0 0 Z " fill="#46BEEF" transform="translate(267,120)"/>
<path d="M0 0 C0.33 0 0.66 0 1 0 C1 1.98 1 3.96 1 6 C1.99 6.33 2.98 6.66 4 7 C4 7.99 4 8.98 4 10 C2.68 10.33 1.36 10.66 0 11 C0 7.37 0 3.74 0 0 Z " fill="#69B5DB" transform="translate(120,220)"/>
<path d="M0 0 C0.66 0 1.32 0 2 0 C2.33 2.31 2.66 4.62 3 7 C1.68 7 0.36 7 -1 7 C-0.67 4.69 -0.34 2.38 0 0 Z " fill="#6AB4D6" transform="translate(319,225)"/>
<path d="M0 0 C2 2 2 2 2.125 5.125 C2.08375 6.07375 2.0425 7.0225 2 8 C0.68 8.33 -0.64 8.66 -2 9 C-1.67 8.01 -1.34 7.02 -1 6 C-1.66 5.34 -2.32 4.68 -3 4 C-2.01 4 -1.02 4 0 4 C0 2.68 0 1.36 0 0 Z " fill="#69C4ED" transform="translate(339,224)"/>
<path d="M0 0 C0.33 0 0.66 0 1 0 C1 3.63 1 7.26 1 11 C-2 8 -2 8 -2.1875 4.8125 C-2.125625 3.884375 -2.06375 2.95625 -2 2 C-1.34 2 -0.68 2 0 2 C0 1.34 0 0.68 0 0 Z " fill="#6FB5D6" transform="translate(295,220)"/>
<path d="M0 0 C0.99 0 1.98 0 3 0 C4.4783226 2.95664519 4.06032783 5.74229737 4 9 C3.67 9 3.34 9 3 9 C3 7.02 3 5.04 3 3 C2.01 3 1.02 3 0 3 C-0.33 3.99 -0.66 4.98 -1 6 C-1.042721 4.33388095 -1.04063832 2.66617115 -1 1 C-0.67 0.67 -0.34 0.34 0 0 Z " fill="#7FACC0" transform="translate(118,217)"/>
<path d="M0 0 C1.65 0.33 3.3 0.66 5 1 C4.01 2.485 4.01 2.485 3 4 C2.01 3.67 1.02 3.34 0 3 C0 3.66 0 4.32 0 5 C-0.99 4.67 -1.98 4.34 -3 4 C-2.34 3.67 -1.68 3.34 -1 3 C-0.67 2.01 -0.34 1.02 0 0 Z " fill="#78A8BE" transform="translate(295,217)"/>
<path d="M0 0 C0.99 0.99 1.98 1.98 3 3 C0.33333333 3.66666667 -2.33333333 4.33333333 -5 5 C-5.33 4.01 -5.66 3.02 -6 2 C-4.02 1.34 -2.04 0.68 0 0 Z " fill="#181818" transform="translate(221,153)"/>
<path d="M0 0 C0.66 0.66 1.32 1.32 2 2 C1.625 4.625 1.625 4.625 1 7 C-0.32 7 -1.64 7 -3 7 C-3.33 6.01 -3.66 5.02 -4 4 C-3.01 3.67 -2.02 3.34 -1 3 C-0.67 2.01 -0.34 1.02 0 0 Z " fill="#70A1BA" transform="translate(203,228)"/>
<path d="M0 0 C0.78375 0.04125 1.5675 0.0825 2.375 0.125 C0.625 2.625 0.625 2.625 -1.625 5.125 C-2.945 5.125 -4.265 5.125 -5.625 5.125 C-4.41988658 1.50965974 -3.92406511 0.18686024 0 0 Z " fill="#6CAECF" transform="translate(134.625,228.875)"/>
<path d="M0 0 C0.66 0.33 1.32 0.66 2 1 C2 3.64 2 6.28 2 9 C1.01 9 0.02 9 -1 9 C-1.08886184 5.80097361 -0.91058531 3.07322544 0 0 Z " fill="#7CC6E7" transform="translate(324,221)"/>
<path d="M0 0 C0.33 0.99 0.66 1.98 1 3 C-1.31 3.33 -3.62 3.66 -6 4 C-6 3.01 -6 2.02 -6 1 C-4 0 -4 0 0 0 Z " fill="#6EB2CF" transform="translate(228,217)"/>
<path d="M0 0 C2.31 0 4.62 0 7 0 C7.66 1.32 8.32 2.64 9 4 C8.2575 3.649375 7.515 3.29875 6.75 2.9375 C3.8677274 1.95490707 2.78823655 1.9673198 0 3 C0 2.01 0 1.02 0 0 Z " fill="#73A8B9" transform="translate(341,217)"/>
<path d="M0 0 C5.875 0.875 5.875 0.875 7 2 C7.04063832 3.66617115 7.042721 5.33388095 7 7 C6.01 6.34 5.02 5.68 4 5 C4 4.01 4 3.02 4 2 C2.68 2 1.36 2 0 2 C0 1.34 0 0.68 0 0 Z " fill="#4DB5E1" transform="translate(278,115)"/>
<path d="M0 0 C2.15377564 2.62198774 3.40072174 4.64404172 4 8 C3.01 8 2.02 8 1 8 C0 7 0 7 -0.0625 3.4375 C-0.041875 2.303125 -0.02125 1.16875 0 0 Z " fill="#8EC2DE" transform="translate(175,226)"/>
<path d="M0 0 C2.875 -0.125 2.875 -0.125 6 0 C6.66 0.66 7.32 1.32 8 2 C5.69 2.33 3.38 2.66 1 3 C0.67 2.01 0.34 1.02 0 0 Z " fill="#57BADA" transform="translate(272,132)"/>
<path d="M0 0 C1.98 0.99 1.98 0.99 4 2 C4 3.32 4 4.64 4 6 C2.68 5.67 1.36 5.34 0 5 C0 3.35 0 1.7 0 0 Z " fill="#6AADC9" transform="translate(159,228)"/>
<path d="M0 0 C0.33 0 0.66 0 1 0 C1.39036513 1.60049704 1.76178619 3.20562371 2.125 4.8125 C2.33382812 5.70582031 2.54265625 6.59914062 2.7578125 7.51953125 C3 10 3 10 1 13 C0.14256349 8.60563789 -0.08948558 4.47427924 0 0 Z " fill="#070707" transform="translate(138,184)"/>
<path d="M0 0 C3.63 0.33 7.26 0.66 11 1 C10.67 1.99 10.34 2.98 10 4 C9.34 4 8.68 4 8 4 C8 3.34 8 2.68 8 2 C5.36 1.67 2.72 1.34 0 1 C0 0.67 0 0.34 0 0 Z " fill="#68BBDC" transform="translate(194,103)"/>
<path d="M0 0 C3.68754757 0.49831724 5.60490662 1.10067643 8 4 C7.67 4.99 7.34 5.98 7 7 C7 6.34 7 5.68 7 5 C6.401875 4.731875 5.80375 4.46375 5.1875 4.1875 C3.02775192 3.01506533 1.64209744 1.80630718 0 0 Z " fill="#5FAECD" transform="translate(277,48)"/>
<path d="M0 0 C0.33 0 0.66 0 1 0 C1 3.3 1 6.6 1 10 C0.67 10 0.34 10 0 10 C0 6.7 0 3.4 0 0 Z " fill="#000000" transform="translate(166,159)"/>
<path d="M0 0 C0.66 0 1.32 0 2 0 C1.67 1.32 1.34 2.64 1 4 C0.67 2.68 0.34 1.36 0 0 Z " fill="#0A0A0A" transform="translate(224,186)"/>
<path d="M0 0 C0.66 0 1.32 0 2 0 C2 0.99 2 1.98 2 3 C1.34 2.67 0.68 2.34 0 2 C0 1.34 0 0.68 0 0 Z " fill="#111111" transform="translate(352,178)"/>
<path d="M0 0 C0.33 0 0.66 0 1 0 C1 1.65 1 3.3 1 5 C0.67 5 0.34 5 0 5 C0 3.35 0 1.7 0 0 Z " fill="#000000" transform="translate(224,171)"/>
<path d="M0 0 C0.99 0.495 0.99 0.495 2 1 C1.67 1.66 1.34 2.32 1 3 C0.67 2.01 0.34 1.02 0 0 Z " fill="#050505" transform="translate(124,185)"/>
<path d="M0 0 C0.33 0.66 0.66 1.32 1 2 C0.01 1.67 -0.98 1.34 -2 1 C-1.34 0.67 -0.68 0.34 0 0 Z " fill="#000000" transform="translate(73,186)"/>
<path d="M0 0 C1 4 1 4 1 4 Z " fill="#000000" transform="translate(336,167)"/>
<path d="M0 0 C3 1 3 1 3 1 Z " fill="#000000" transform="translate(316,198)"/>
<path d="M0 0 C0.66 0.66 1.32 1.32 2 2 C1.34 2 0.68 2 0 2 C0 1.34 0 0.68 0 0 Z " fill="#0C0C0C" transform="translate(168,193)"/>
<path d="M0 0 C0.66 0.66 1.32 1.32 2 2 C1.34 2 0.68 2 0 2 C0 1.34 0 0.68 0 0 Z " fill="#000000" transform="translate(110,193)"/>
<path d="M0 0 C0.33 0.66 0.66 1.32 1 2 C0.34 1.67 -0.32 1.34 -1 1 C-0.67 0.67 -0.34 0.34 0 0 Z " fill="#000000" transform="translate(134,193)"/>
<path d="" fill="#000000" transform="translate(0,0)"/>
<path d="" fill="#000000" transform="translate(0,0)"/>
<path d="" fill="#000000" transform="translate(0,0)"/>
<path d="M0 0 C0.66 0.66 1.32 1.32 2 2 C1.34 2 0.68 2 0 2 C0 1.34 0 0.68 0 0 Z " fill="#000000" transform="translate(195,158)"/>
<path d="M0 0 C0.66 0 1.32 0 2 0 C1.67 0.66 1.34 1.32 1 2 C0.67 1.34 0.34 0.68 0 0 Z " fill="#2A2A2A" transform="translate(352,157)"/>
<path d="" fill="#000000" transform="translate(0,0)"/>
<path d="M0 0 C2 1 2 1 2 1 Z " fill="#2E2E2E" transform="translate(357,198)"/>
<path d="M0 0 C2 1 2 1 2 1 Z " fill="#000000" transform="translate(328,198)"/>
<path d="M0 0 C2 1 2 1 2 1 Z " fill="#000000" transform="translate(255,198)"/>
<path d="M0 0 C2 1 2 1 2 1 Z " fill="#000000" transform="translate(146,198)"/>
<path d="M0 0 C2 1 2 1 2 1 Z " fill="#101010" transform="translate(141,198)"/>
<path d="M0 0 C2 1 2 1 2 1 Z " fill="#202020" transform="translate(119,198)"/>
<path d="M0 0 C2 1 2 1 2 1 Z " fill="#000000" transform="translate(114,198)"/>
<path d="M0 0 C2 1 2 1 2 1 Z " fill="#000000" transform="translate(73,198)"/>
<path d="M0 0 C2 1 2 1 2 1 Z " fill="#000000" transform="translate(58,198)"/>
<path d="M0 0 C2 1 2 1 2 1 Z " fill="#000000" transform="translate(223,197)"/>
<path d="" fill="#000000" transform="translate(0,0)"/>
<path d="" fill="#000000" transform="translate(0,0)"/>
<path d="M0 0 C2 1 2 1 2 1 Z " fill="#000000" transform="translate(170,195)"/>
<path d="" fill="#323232" transform="translate(0,0)"/>
<path d="" fill="#000000" transform="translate(0,0)"/>
<path d="M0 0 C2 1 2 1 2 1 Z " fill="#000000" transform="translate(224,194)"/>
<path d="" fill="#000000" transform="translate(0,0)"/>
<path d="" fill="#000000" transform="translate(0,0)"/>
<path d="" fill="#000000" transform="translate(0,0)"/>
<path d="" fill="#000000" transform="translate(0,0)"/>
<path d="" fill="#000000" transform="translate(0,0)"/>
<path d="" fill="#000000" transform="translate(0,0)"/>
<path d="M0 0 C2 1 2 1 2 1 Z " fill="#000000" transform="translate(149,189)"/>
<path d="M0 0 C2 1 2 1 2 1 Z " fill="#191919" transform="translate(107,187)"/>
<path d="M0 0 C2 1 2 1 2 1 Z " fill="#121212" transform="translate(178,186)"/>
<path d="" fill="#000000" transform="translate(0,0)"/>
<path d="M0 0 C2 1 2 1 2 1 Z " fill="#0E0E0E" transform="translate(367,181)"/>
<path d="M0 0 C2 1 2 1 2 1 Z " fill="#000000" transform="translate(187,181)"/>
<path d="" fill="#000000" transform="translate(0,0)"/>
<path d="" fill="#000000" transform="translate(0,0)"/>
<path d="" fill="#000000" transform="translate(0,0)"/>
<path d="M0 0 C2 1 2 1 2 1 Z " fill="#191919" transform="translate(211,169)"/>
<path d="" fill="#000000" transform="translate(0,0)"/>
<path d="" fill="#202020" transform="translate(0,0)"/>
<path d="" fill="#000000" transform="translate(0,0)"/>
<path d="" fill="#000000" transform="translate(0,0)"/>
<path d="M0 0 C2 1 2 1 2 1 Z " fill="#202020" transform="translate(236,164)"/>
<path d="" fill="#000000" transform="translate(0,0)"/>
<path d="" fill="#000000" transform="translate(0,0)"/>
<path d="" fill="#000000" transform="translate(0,0)"/>
<path d="" fill="#000000" transform="translate(0,0)"/>
<path d="" fill="#000000" transform="translate(0,0)"/>
<path d="" fill="#000000" transform="translate(0,0)"/>
<path d="" fill="#000000" transform="translate(0,0)"/>
<path d="M0 0 C2 1 2 1 2 1 Z " fill="#000000" transform="translate(239,152)"/>
<path d="M0 0 C2 1 2 1 2 1 Z " fill="#000000" transform="translate(144,152)"/>
<path d="" fill="#8080BF" transform="translate(0,0)"/>
<path d="" fill="#FFFFFF" transform="translate(0,0)"/>
<path d="" fill="#808080" transform="translate(0,0)"/>
<path d="" fill="#AAAAAA" transform="translate(0,0)"/>
<path d="" fill="#FFFFFF" transform="translate(0,0)"/>
<path d="" fill="#8080FF" transform="translate(0,0)"/>
<path d="" fill="#AAAAAA" transform="translate(0,0)"/>
<path d="" fill="#FFFFFF" transform="translate(0,0)"/>
<path d="" fill="#000000" transform="translate(0,0)"/>
<path d="" fill="#000000" transform="translate(0,0)"/>
<path d="" fill="#000000" transform="translate(0,0)"/>
<path d="" fill="#000000" transform="translate(0,0)"/>
<path d="" fill="#000000" transform="translate(0,0)"/>
<path d="" fill="#000000" transform="translate(0,0)"/>
<path d="" fill="#000000" transform="translate(0,0)"/>
<path d="" fill="#242424" transform="translate(0,0)"/>
<path d="" fill="#000000" transform="translate(0,0)"/>
<path d="" fill="#000000" transform="translate(0,0)"/>
<path d="" fill="#000000" transform="translate(0,0)"/>
<path d="" fill="#000000" transform="translate(0,0)"/>
<path d="" fill="#404040" transform="translate(0,0)"/>
<path d="" fill="#2A2A2A" transform="translate(0,0)"/>
<path d="" fill="#000000" transform="translate(0,0)"/>
<path d="" fill="#000000" transform="translate(0,0)"/>
<path d="" fill="#000000" transform="translate(0,0)"/>
<path d="" fill="#333333" transform="translate(0,0)"/>
<path d="" fill="#000000" transform="translate(0,0)"/>
<path d="" fill="#000000" transform="translate(0,0)"/>
<path d="" fill="#2A2A2A" transform="translate(0,0)"/>
<path d="" fill="#000000" transform="translate(0,0)"/>
<path d="" fill="#404040" transform="translate(0,0)"/>
<path d="" fill="#000000" transform="translate(0,0)"/>
<path d="" fill="#000000" transform="translate(0,0)"/>
<path d="" fill="#000000" transform="translate(0,0)"/>
<path d="" fill="#2A2A2A" transform="translate(0,0)"/>
<path d="" fill="#333333" transform="translate(0,0)"/>
<path d="" fill="#000000" transform="translate(0,0)"/>
<path d="" fill="#000000" transform="translate(0,0)"/>
<path d="" fill="#000000" transform="translate(0,0)"/>
<path d="" fill="#202020" transform="translate(0,0)"/>
<path d="" fill="#000000" transform="translate(0,0)"/>
<path d="" fill="#000000" transform="translate(0,0)"/>
<path d="" fill="#000000" transform="translate(0,0)"/>
<path d="" fill="#000000" transform="translate(0,0)"/>
<path d="" fill="#000000" transform="translate(0,0)"/>
<path d="" fill="#000000" transform="translate(0,0)"/>
<path d="" fill="#000000" transform="translate(0,0)"/>
<path d="" fill="#000000" transform="translate(0,0)"/>
<path d="" fill="#000000" transform="translate(0,0)"/>
<path d="" fill="#000000" transform="translate(0,0)"/>
<path d="" fill="#000000" transform="translate(0,0)"/>
<path d="" fill="#000000" transform="translate(0,0)"/>
<path d="" fill="#000000" transform="translate(0,0)"/>
<path d="" fill="#000000" transform="translate(0,0)"/>
<path d="" fill="#000000" transform="translate(0,0)"/>
<path d="" fill="#000000" transform="translate(0,0)"/>
<path d="" fill="#000000" transform="translate(0,0)"/>
<path d="" fill="#333333" transform="translate(0,0)"/>
<path d="" fill="#000000" transform="translate(0,0)"/>
<path d="" fill="#000000" transform="translate(0,0)"/>
<path d="" fill="#000000" transform="translate(0,0)"/>
<path d="" fill="#2A2A2A" transform="translate(0,0)"/>
<path d="" fill="#000000" transform="translate(0,0)"/>
<path d="" fill="#000000" transform="translate(0,0)"/>
<path d="" fill="#000000" transform="translate(0,0)"/>
<path d="" fill="#000000" transform="translate(0,0)"/>
<path d="" fill="#000000" transform="translate(0,0)"/>
<path d="" fill="#000000" transform="translate(0,0)"/>
<path d="" fill="#000000" transform="translate(0,0)"/>
<path d="" fill="#000000" transform="translate(0,0)"/>
<path d="" fill="#000000" transform="translate(0,0)"/>
<path d="" fill="#000000" transform="translate(0,0)"/>
<path d="" fill="#000000" transform="translate(0,0)"/>
<path d="" fill="#000000" transform="translate(0,0)"/>
<path d="" fill="#000000" transform="translate(0,0)"/>
<path d="" fill="#000000" transform="translate(0,0)"/>
<path d="" fill="#404040" transform="translate(0,0)"/>
<path d="" fill="#000000" transform="translate(0,0)"/>
<path d="" fill="#000000" transform="translate(0,0)"/>
<path d="" fill="#000000" transform="translate(0,0)"/>
<path d="" fill="#333333" transform="translate(0,0)"/>
<path d="" fill="#000000" transform="translate(0,0)"/>
<path d="" fill="#000000" transform="translate(0,0)"/>
<path d="" fill="#000000" transform="translate(0,0)"/>
<path d="" fill="#000000" transform="translate(0,0)"/>
<path d="" fill="#000000" transform="translate(0,0)"/>
<path d="" fill="#000000" transform="translate(0,0)"/>
<path d="" fill="#000000" transform="translate(0,0)"/>
<path d="" fill="#000000" transform="translate(0,0)"/>
<path d="" fill="#000000" transform="translate(0,0)"/>
<path d="" fill="#2A2A2A" transform="translate(0,0)"/>
<path d="" fill="#000000" transform="translate(0,0)"/>
<path d="" fill="#000000" transform="translate(0,0)"/>
<path d="" fill="#242424" transform="translate(0,0)"/>
<path d="" fill="#000000" transform="translate(0,0)"/>
<path d="" fill="#000000" transform="translate(0,0)"/>
<path d="" fill="#000000" transform="translate(0,0)"/>
<path d="" fill="#333333" transform="translate(0,0)"/>
<path d="" fill="#000000" transform="translate(0,0)"/>
<path d="" fill="#333333" transform="translate(0,0)"/>
<path d="" fill="#000000" transform="translate(0,0)"/>
<path d="" fill="#202020" transform="translate(0,0)"/>
<path d="" fill="#000000" transform="translate(0,0)"/>
<path d="" fill="#000000" transform="translate(0,0)"/>
<path d="" fill="#000000" transform="translate(0,0)"/>
<path d="" fill="#000000" transform="translate(0,0)"/>
<path d="" fill="#000000" transform="translate(0,0)"/>
<path d="" fill="#000000" transform="translate(0,0)"/>
<path d="" fill="#000000" transform="translate(0,0)"/>
<path d="" fill="#000000" transform="translate(0,0)"/>
<path d="" fill="#000000" transform="translate(0,0)"/>
<path d="" fill="#000000" transform="translate(0,0)"/>
<path d="" fill="#404040" transform="translate(0,0)"/>
<path d="" fill="#000000" transform="translate(0,0)"/>
<path d="" fill="#2A2A2A" transform="translate(0,0)"/>
<path d="" fill="#000000" transform="translate(0,0)"/>
<path d="" fill="#000000" transform="translate(0,0)"/>
<path d="" fill="#000000" transform="translate(0,0)"/>
<path d="" fill="#000000" transform="translate(0,0)"/>
<path d="" fill="#404040" transform="translate(0,0)"/>
<path d="" fill="#000000" transform="translate(0,0)"/>
<path d="" fill="#2A2A2A" transform="translate(0,0)"/>
<path d="" fill="#000000" transform="translate(0,0)"/>
<path d="" fill="#000000" transform="translate(0,0)"/>
<path d="" fill="#000000" transform="translate(0,0)"/>
<path d="" fill="#000000" transform="translate(0,0)"/>
<path d="" fill="#000000" transform="translate(0,0)"/>
<path d="" fill="#000000" transform="translate(0,0)"/>
<path d="" fill="#555555" transform="translate(0,0)"/>
<path d="" fill="#000000" transform="translate(0,0)"/>
<path d="" fill="#555555" transform="translate(0,0)"/>
<path d="" fill="#202020" transform="translate(0,0)"/>
<path d="" fill="#000000" transform="translate(0,0)"/>
<path d="" fill="#000000" transform="translate(0,0)"/>
<path d="" fill="#000000" transform="translate(0,0)"/>
<path d="" fill="#000000" transform="translate(0,0)"/>
<path d="" fill="#404040" transform="translate(0,0)"/>
<path d="" fill="#000000" transform="translate(0,0)"/>
<path d="" fill="#000000" transform="translate(0,0)"/>
<path d="" fill="#000000" transform="translate(0,0)"/>
<path d="" fill="#404040" transform="translate(0,0)"/>
<path d="" fill="#000000" transform="translate(0,0)"/>
<path d="" fill="#000000" transform="translate(0,0)"/>
<path d="" fill="#000000" transform="translate(0,0)"/>
<path d="" fill="#000000" transform="translate(0,0)"/>
<path d="" fill="#000000" transform="translate(0,0)"/>
<path d="" fill="#000000" transform="translate(0,0)"/>
<path d="" fill="#000000" transform="translate(0,0)"/>
<path d="" fill="#000000" transform="translate(0,0)"/>
<path d="" fill="#000000" transform="translate(0,0)"/>
<path d="" fill="#000000" transform="translate(0,0)"/>
<path d="" fill="#333333" transform="translate(0,0)"/>
<path d="" fill="#202020" transform="translate(0,0)"/>
<path d="" fill="#000000" transform="translate(0,0)"/>
<path d="" fill="#202020" transform="translate(0,0)"/>
<path d="" fill="#404040" transform="translate(0,0)"/>
<path d="" fill="#2A2A2A" transform="translate(0,0)"/>
<path d="" fill="#000000" transform="translate(0,0)"/>
<path d="" fill="#000000" transform="translate(0,0)"/>
<path d="" fill="#000000" transform="translate(0,0)"/>
<path d="" fill="#404040" transform="translate(0,0)"/>
<path d="" fill="#000000" transform="translate(0,0)"/>
<path d="" fill="#000000" transform="translate(0,0)"/>
<path d="" fill="#000000" transform="translate(0,0)"/>
<path d="" fill="#000000" transform="translate(0,0)"/>
<path d="" fill="#000000" transform="translate(0,0)"/>
<path d="" fill="#000000" transform="translate(0,0)"/>
<path d="" fill="#000000" transform="translate(0,0)"/>
<path d="" fill="#000000" transform="translate(0,0)"/>
<path d="" fill="#000000" transform="translate(0,0)"/>
<path d="" fill="#151515" transform="translate(0,0)"/>
<path d="" fill="#000000" transform="translate(0,0)"/>
<path d="" fill="#000000" transform="translate(0,0)"/>
<path d="" fill="#000000" transform="translate(0,0)"/>
<path d="" fill="#000000" transform="translate(0,0)"/>
<path d="" fill="#000000" transform="translate(0,0)"/>
<path d="" fill="#2A2A2A" transform="translate(0,0)"/>
<path d="" fill="#242424" transform="translate(0,0)"/>
<path d="" fill="#000000" transform="translate(0,0)"/>
<path d="" fill="#000000" transform="translate(0,0)"/>
<path d="" fill="#1C1C1C" transform="translate(0,0)"/>
<path d="" fill="#404040" transform="translate(0,0)"/>
<path d="" fill="#202020" transform="translate(0,0)"/>
<path d="" fill="#000000" transform="translate(0,0)"/>
<path d="" fill="#000000" transform="translate(0,0)"/>
<path d="" fill="#000000" transform="translate(0,0)"/>
<path d="" fill="#555555" transform="translate(0,0)"/>
<path d="" fill="#000000" transform="translate(0,0)"/>
<path d="" fill="#2A2A2A" transform="translate(0,0)"/>
<path d="" fill="#1C1C1C" transform="translate(0,0)"/>
<path d="" fill="#000000" transform="translate(0,0)"/>
<path d="" fill="#000000" transform="translate(0,0)"/>
<path d="" fill="#000000" transform="translate(0,0)"/>
<path d="" fill="#000000" transform="translate(0,0)"/>
<path d="" fill="#333333" transform="translate(0,0)"/>
<path d="" fill="#000000" transform="translate(0,0)"/>
<path d="" fill="#000000" transform="translate(0,0)"/>
<path d="" fill="#000000" transform="translate(0,0)"/>
<path d="" fill="#000000" transform="translate(0,0)"/>
<path d="" fill="#000000" transform="translate(0,0)"/>
<path d="" fill="#000000" transform="translate(0,0)"/>
<path d="" fill="#404040" transform="translate(0,0)"/>
<path d="" fill="#000000" transform="translate(0,0)"/>
<path d="" fill="#333333" transform="translate(0,0)"/>
<path d="" fill="#000000" transform="translate(0,0)"/>
<path d="" fill="#000000" transform="translate(0,0)"/>
<path d="" fill="#000000" transform="translate(0,0)"/>
<path d="" fill="#000000" transform="translate(0,0)"/>
<path d="" fill="#000000" transform="translate(0,0)"/>
<path d="" fill="#333333" transform="translate(0,0)"/>
<path d="" fill="#000000" transform="translate(0,0)"/>
<path d="" fill="#000000" transform="translate(0,0)"/>
</svg>
