<?xml version="1.0" encoding="utf-8"?>
<!DOCTYPE svg PUBLIC "-//W3C//DTD SVG 1.0//EN" "http://www.w3.org/TR/2001/REC-SVG-20010904/DTD/svg10.dtd">
<svg version="1.0" xmlns="http://www.w3.org/2000/svg" width="455px" height="283px" viewBox="0 0 455 283" preserveAspectRatio="xMidYMid meet">
 <g fill="#3ec0fe">
  <path d="M326.1 232.3 c-1.6 -1.1 -2.1 -2.5 -2.1 -6.2 0 -5.5 1.2 -7.1 5.6 -7.1 2.9 0 4.4 1.3 4.4 4.1 0 1.3 -2.8 1.1 -3.2 -0.3 -0.3 -0.7 -1.2 -0.9 -2.2 -0.5 -2.4 0.9 -1.9 7 0.7 7.5 1 0.2 1.7 -0.3 1.7 -1.2 0 -0.9 0.7 -1.6 1.5 -1.6 1.6 0 2 2.7 0.7 4.6 -1.2 1.9 -5 2.2 -7.1 0.7z"/>
  <path d="M105 226 l0 -7 3.5 0 c2.5 0 3.7 0.6 4.5 2.1 1.6 3 0.4 6.8 -2.5 7.9 -1.4 0.5 -2.5 1.6 -2.5 2.5 0 0.8 -0.7 1.5 -1.5 1.5 -1.2 0 -1.5 -1.4 -1.5 -7z"/>
  <path d="M118 226 c0 -5.6 0.3 -7 1.5 -7 1.2 0 1.5 1.3 1.5 5.5 0 5.2 0.1 5.5 2.5 5.5 1.6 0 2.5 0.6 2.5 1.5 0 1.1 -1.1 1.5 -4 1.5 l-4 0 0 -7z"/>
  <path d="M130.9 226.5 c1 -3.6 2.1 -6.9 2.4 -7.2 1.5 -1.4 3.5 0.9 4.6 5.4 0.7 2.6 1.4 5.6 1.7 6.6 0.7 2.1 -2.4 2.4 -3.2 0.2 -0.4 -0.8 -1.2 -1.5 -1.9 -1.5 -0.7 0 -1.5 0.7 -1.9 1.5 -0.3 0.8 -1.2 1.5 -2 1.5 -1.3 0 -1.2 -0.9 0.3 -6.5z"/>
  <path d="M144 226 c0 -6.1 0.2 -7 1.8 -7 1.1 0 2.4 1 3 2.3 l1.1 2.2 0 -2.2 c0.2 -4.2 2.9 -2.6 3.3 1.9 0.8 8.6 -1.4 12.8 -4 7.6 l-1.1 -2.3 -0.7 2.3 c-0.3 1.2 -1.3 2.2 -2 2.2 -1.1 0 -1.4 -1.7 -1.4 -7z"/>
  <path d="M158 231.5 c0 -0.8 0.9 -1.5 2 -1.5 1.1 0 2 0.7 2 1.5 0 0.8 -0.9 1.5 -2 1.5 -1.1 0 -2 -0.7 -2 -1.5z"/>
  <path d="M176 226 c0 -6.2 0.2 -7 1.9 -7 1.4 0 2.3 1.2 3.3 4.1 l1.4 4.2 1.2 -4.2 c0.9 -3 1.8 -4.1 3.2 -4.1 1.8 0 2 0.7 2 7 0 5.4 -0.3 7 -1.4 7 -0.8 0 -1.7 -1 -1.9 -2.2 l-0.4 -2.3 -0.8 2.3 c-0.8 2.5 -3.5 3 -3.5 0.7 0 -0.8 -0.4 -1.5 -1 -1.5 -0.5 0 -1 0.7 -1 1.5 0 0.8 -0.7 1.5 -1.5 1.5 -1.2 0 -1.5 -1.4 -1.5 -7z"/>
  <path d="M193.3 231.8 c0.2 -0.7 1 -3.7 1.8 -6.7 1.2 -4.9 3.1 -7.2 4.6 -5.8 0.3 0.3 1.4 3.6 2.4 7.2 1.5 5.6 1.6 6.5 0.3 6.5 -0.8 0 -1.7 -0.7 -2 -1.5 -0.4 -0.8 -1.2 -1.5 -1.9 -1.5 -0.7 0 -1.5 0.7 -1.9 1.5 -0.3 0.8 -1.3 1.5 -2.2 1.5 -0.9 0 -1.4 -0.6 -1.1 -1.2z"/>
  <path d="M210 227.6 c0 -3.9 -0.4 -5.5 -1.5 -6 -3.2 -1.2 -1.3 -2.6 3.5 -2.6 4.8 0 6.7 1.4 3.5 2.6 -1.1 0.5 -1.5 2.1 -1.5 6 0 4.7 -0.2 5.4 -2 5.4 -1.8 0 -2 -0.7 -2 -5.4z"/>
  <path d="M221.7 232.3 c-0.9 -0.8 -0.9 -9.6 -0.1 -11.7 0.7 -1.9 6.4 -2.2 8.2 -0.4 1.7 1.7 1.5 3.8 -0.3 3.8 -0.8 0 -1.5 -0.4 -1.5 -1 0 -0.5 -0.9 -1 -2 -1 -1.7 0 -2 0.7 -2 4 0 2.9 0.4 4 1.5 4 0.9 0 1.8 -0.7 2.1 -1.5 0.4 -0.8 1.2 -1.5 2 -1.5 1.7 0 1.8 3.2 0.2 4.8 -1.3 1.3 -7 1.7 -8.1 0.5z"/>
  <path d="M236 226 c0 -5.6 0.3 -7 1.5 -7 0.9 0 1.5 0.9 1.5 2.5 0 1.6 0.6 2.5 1.5 2.5 0.9 0 1.5 -0.9 1.5 -2.5 0 -1.5 0.6 -2.5 1.4 -2.5 1.6 0 2.4 2.4 2.1 6.5 -0.1 1.7 -0.3 4 -0.3 5.3 -0.3 3.1 -3.2 2.9 -3.2 -0.3 0 -1.6 -0.6 -2.5 -1.5 -2.5 -0.9 0 -1.5 0.9 -1.5 2.5 0 1.6 -0.6 2.5 -1.5 2.5 -1.2 0 -1.5 -1.4 -1.5 -7z"/>
  <path d="M250 231.5 c0 -0.8 0.9 -1.5 2 -1.5 1.1 0 2 0.7 2 1.5 0 0.8 -0.9 1.5 -2 1.5 -1.1 0 -2 -0.7 -2 -1.5z"/>
  <path d="M268 225.9 c0 -6.2 0.2 -7 1.8 -6.7 1.3 0.2 1.8 1.5 2 5.6 0.3 4.4 0.6 5.2 2.3 5.2 1 0 1.9 0.7 1.9 1.5 0 1.1 -1.1 1.5 -4 1.5 l-4 0 0 -7.1z"/>
  <path d="M280 232.5 c0 -0.3 0.7 -3.5 1.6 -7 2.2 -8.7 4.4 -8.9 6.7 -0.5 1 3.3 1.7 6.4 1.7 7 0 1.6 -2.2 1.2 -3.6 -0.7 -1.3 -1.7 -1.5 -1.7 -2.8 0 -1.2 1.6 -3.6 2.4 -3.6 1.2z"/>
  <path d="M295 230.9 c-0.6 -1.1 -0.9 -3.7 -0.6 -5.7 0.3 -2 0.5 -4.3 0.6 -4.9 0 -0.7 0.7 -1.3 1.5 -1.3 1.2 0 1.5 1.3 1.5 5.5 0 4.2 0.3 5.5 1.5 5.5 1.1 0 1.5 -1.1 1.5 -3.9 0 -4.9 0.8 -7.1 2.6 -7.1 1.7 0 2 9.1 0.4 12.1 -1.5 2.7 -7.5 2.6 -9 -0.2z"/>
  <path d="M310 226 c0 -5.5 0.3 -7 1.5 -7 0.8 0 2.1 1.2 2.9 2.8 l1.5 2.7 0.1 -2.7 c0 -1.8 0.5 -2.8 1.5 -2.8 1.2 0 1.5 1.4 1.5 7 0 5.5 -0.3 7 -1.5 7 -0.8 0 -2.1 -1.2 -2.9 -2.7 l-1.5 -2.8 -0.1 2.8 c0 1.7 -0.5 2.7 -1.5 2.7 -1.2 0 -1.5 -1.4 -1.5 -7z"/>
  <path d="M339 226 c0 -5.6 0.3 -7 1.5 -7 0.9 0 1.5 1 1.5 2.6 0 1.9 0.4 2.5 1.8 2.2 1 -0.2 1.7 -1.2 1.6 -2.6 0 -1.5 0.5 -2.2 1.8 -2.2 1.6 0 1.8 0.9 1.8 7 0 6.4 -0.2 7 -2 7 -1.2 0 -2 -0.6 -1.9 -1.2 0.3 -2.7 -0.2 -3.8 -1.6 -3.8 -0.9 0 -1.5 0.9 -1.5 2.5 0 1.6 -0.6 2.5 -1.5 2.5 -1.2 0 -1.5 -1.4 -1.5 -7z"/>
  <path d="M57 195 c0 -1.3 0.7 -2 2 -2 1.3 0 2 -0.7 2 -2 0 -1.3 0.7 -2 2 -2 1.7 0 2 0.7 2 4 l0 4 -4 0 c-3.3 0 -4 -0.3 -4 -2z"/>
  <path d="M67 195.1 c0 -1.8 0.6 -2.1 5.1 -2.1 4.3 0 5 0.3 4.7 1.8 -0.2 1.3 -1.5 1.8 -5.1 2 -4.2 0.3 -4.7 0.1 -4.7 -1.7z"/>
  <path d="M80 195 c0 -1.7 0.7 -2 4.4 -2 3.9 0 4.4 0.2 3.9 2 -0.4 1.6 -1.4 2 -4.4 2 -3.2 0 -3.9 -0.3 -3.9 -2z"/>
  <path d="M129 193.9 c0 -3.9 1.5 -5.9 4.2 -5.9 2.8 0 2.2 3.3 -1.2 6.5 l-3 2.9 0 -3.5z"/>
  <path d="M140 195 c0 -1.7 0.7 -2 4 -2 3.3 0 4 0.3 4 2 0 1.7 -0.7 2 -4 2 -3.3 0 -4 -0.3 -4 -2z"/>
  <path d="M387.6 195.4 c-0.9 -2.4 -0.9 -2.4 3.9 -2.4 3.8 0 4.5 0.3 4.5 2 0 1.7 -0.7 2 -3.9 2 -2.6 0 -4.1 -0.5 -4.5 -1.6z"/>
  <path d="M98.7 194.3 c-0.4 -0.3 -0.7 -1.7 -0.7 -3 0 -1.6 0.6 -2.3 2 -2.3 1.6 0 2 0.7 2 3 0 2.8 -1.7 4 -3.3 2.3z"/>
  <path d="M182 191 c0 -1.1 0.6 -2 1.4 -2 0.8 0 1.7 -0.6 1.9 -1.2 0.3 -0.7 0.6 0.2 0.6 2 0.1 2.6 -0.3 3.2 -1.9 3.2 -1.3 0 -2 -0.7 -2 -2z"/>
  <path d="M57 185 c0 -1.7 0.7 -2 4 -2 3.3 0 4 0.3 4 2 0 1.7 -0.7 2 -4 2 -3.3 0 -4 -0.3 -4 -2z"/>
  <path d="M143 179.5 c0 -1.4 -0.4 -2.5 -1 -2.5 -0.5 0 -1 -1.6 -1 -3.5 0 -5.2 2.3 -4.4 4.6 1.7 1 2.9 2.1 5.6 2.2 6 0.2 0.4 -0.8 0.8 -2.2 0.8 -2.1 0 -2.6 -0.5 -2.6 -2.5z"/>
  <path d="M237 176 c0 -1.3 0.7 -2 2 -2 1.3 0 2 0.7 2 2 0 1.3 -0.7 2 -2 2 -1.3 0 -2 -0.7 -2 -2z"/>
  <path d="M191.8 134.2 c-4.4 -0.5 -7.8 -4.8 -7.8 -9.8 0 -5.8 3 -9.3 8.7 -10.1 3.9 -0.5 4.6 -0.2 7.8 3 2.7 2.7 3.5 4.3 3.5 7 0 6.1 -5.6 10.7 -12.2 9.9z"/>
  <path d="M270.8 132.4 c-2.9 -1.5 -5.8 -6.1 -5.8 -8.9 0 -6.3 7.5 -11.5 13.7 -9.4 3.6 1.1 7.3 5.8 7.3 9.2 0 3.1 -2.9 7.6 -6 9.2 -3.6 1.9 -5.7 1.8 -9.2 -0.1z"/>
  <path d="M221 110.4 c-1.9 -0.3 -6.9 -1.2 -11 -2.2 l-7.5 -1.7 14.7 -0.3 c8.1 -0.1 21.6 -0.1 30 0 l15.3 0.3 -7.5 1.8 c-7.3 1.7 -27.2 2.9 -34 2.1z"/>
  <path d="M195.8 103.3 c-10.2 -2.7 -18.9 -7.9 -22.9 -13.9 -3.9 -6 -1.2 -17 6 -23.8 2.4 -2.3 2.8 -3.3 2.1 -4.7 -1.7 -3.1 -1.1 -7.4 1.3 -9.6 2.6 -2.5 5 -3 9.3 -1.9 2.5 0.6 4.5 0 10.5 -3.3 20 -10.6 48.5 -9.3 66.1 3 1.6 1.2 2.9 1.6 3.3 0.9 1.1 -1.8 8.3 -1.2 10.5 1 2.6 2.6 3.4 6.3 2 8.9 -1 1.9 -0.6 2.9 2.9 7.3 10.5 13.1 6.7 24.1 -11.3 32.8 l-8.1 3.9 -33.5 0.3 c-24.1 0.2 -34.7 0 -38.2 -0.9z m13.4 -20.8 c1.2 -1.6 0.9 -2.4 -1.7 -4.1 -2.4 -1.6 -2.7 -1.6 -4.5 0.1 -2.5 2.3 -2.5 3 0.1 5.6 1.7 1.7 2.3 1.8 3.7 0.7 0.9 -0.7 2 -1.7 2.4 -2.3z m54 0 c1.2 -1.6 0.9 -2.4 -1.7 -4.1 -2.4 -1.6 -2.7 -1.6 -4.5 0.1 -2.5 2.3 -2.5 3 0.1 5.6 1.7 1.7 2.3 1.8 3.7 0.7 0.9 -0.7 2 -1.7 2.4 -2.3z"/>
 </g>
 <g fill="#222221">
  <path d="M115 211 c0 -1.3 0.7 -2 2 -2 1.3 0 2 0.7 2 2 0 1.3 -0.7 2 -2 2 -1.3 0 -2 -0.7 -2 -2z"/>
  <path d="M98.9 195.8 c-0.1 -0.7 -0.3 -2.5 -0.5 -4 -0.3 -2.7 -0.1 -2.8 3.9 -2.7 2.3 0.1 3.5 0.3 2.7 0.5 -1.2 0.4 -1.5 1.4 -1.2 3.9 0.4 3.2 0.2 3.5 -2.2 3.5 -1.4 0 -2.7 -0.6 -2.7 -1.2z"/>
  <path d="M118.1 191.8 c0 -2.9 0.3 -4.7 0.6 -4 0.2 0.6 1.1 1.2 1.9 1.2 1 0 1.4 1.2 1.4 4 0 3.3 -0.3 4 -2 4 -1.8 0 -2 -0.6 -1.9 -5.2z"/>
  <path d="M124 193.1 c0 -2.5 0.5 -4.1 1.5 -4.5 0.8 -0.3 1.5 -1.2 1.5 -2.1 0 -0.8 0.5 -1.5 1 -1.5 0.6 0 1 -1.1 1 -2.5 0 -2.1 0.5 -2.5 3 -2.5 l3.1 0 -0.3 5.7 c-0.3 5.2 -0.5 5.7 -3.5 7.2 -1.8 0.9 -3.3 2.2 -3.3 2.9 0 0.6 -0.9 1.2 -2 1.2 -1.7 0 -2 -0.7 -2 -3.9z"/>
  <path d="M143.2 196.3 c-2.9 -0.4 -3.3 -0.8 -3 -3.1 0.3 -2.3 0.8 -2.7 4.1 -3 3.6 -0.3 3.7 -0.3 3.7 3.2 0 2 -0.3 3.5 -0.7 3.4 -0.5 0 -2.3 -0.3 -4.1 -0.5z"/>
  <path d="M155.1 194.8 c-0.5 -1.3 -4.1 -10.6 -8 -20.7 -4.4 -11.3 -6.8 -18.8 -6.3 -19.3 0.5 -0.5 2.4 -0.8 4.2 -0.6 3.2 0.3 3.5 0.7 6.9 9.8 l3.6 9.5 0.5 -9.5 0.5 -9.5 4 0 4 0 0 21 0 21 -4.3 0.3 c-3.6 0.3 -4.3 0 -5.1 -2z"/>
  <path d="M171.7 194.2 c-2.7 -2.8 -2.7 -2.8 -2.7 -18.7 0 -15.9 0 -15.9 2.7 -18.7 1.7 -1.8 3.7 -2.8 5.5 -2.8 2.7 0 2.8 0.2 2.8 4.5 0 3.3 -0.4 4.5 -1.5 4.5 -1.3 0 -1.5 2.1 -1.5 12.5 0 10.2 0.3 12.7 1.5 13.1 1 0.4 1.5 2 1.5 4.5 0 3.6 -0.2 3.9 -2.8 3.9 -1.8 0 -3.8 -1 -5.5 -2.8z"/>
  <path d="M182 193.5 c0 -2.2 0.6 -3.8 1.5 -4.1 0.9 -0.4 1.5 -1.9 1.5 -3.5 0 -2.8 0.2 -2.9 4.5 -2.9 l4.5 0 0 3.8 c0 4.7 -5 10.2 -9.3 10.2 -2.4 0 -2.7 -0.4 -2.7 -3.5z"/>
  <path d="M198 175.5 l0 -21.5 4 0 4 0 0 21.5 0 21.5 -4 0 -4 0 0 -21.5z"/>
  <path d="M214.7 196.4 c-0.4 -0.4 -0.7 -3.8 -0.7 -7.6 l0 -6.8 4.5 0 4.6 0 -0.3 7.3 -0.3 7.2 -3.5 0.3 c-2 0.2 -3.9 0 -4.3 -0.4z"/>
  <path d="M227 190.5 l0 -6.5 4 0 4 0 0 6.5 0 6.5 -4 0 -4 0 0 -6.5z"/>
  <path d="M254.1 195.3 c0 -1 0.8 -4.9 1.7 -8.8 l1.7 -7 6.2 -0.3 6.2 -0.3 -0.6 -3.2 c-0.7 -3.9 -2.3 -6 -2.3 -3 0 4.2 -1.1 5.3 -5.1 5.3 -2.5 0 -3.9 -0.5 -3.9 -1.2 0.1 -0.7 1.1 -6 2.3 -11.8 l2.2 -10.5 5.5 0 5.4 0 3.2 16 c1.8 8.8 3 16.3 2.7 16.8 -0.2 0.4 -3.8 0.7 -7.8 0.7 -8.1 0 -7.7 -0.3 -8.7 6.5 -0.3 1.6 -1.2 2.1 -4.6 2.3 -3.5 0.3 -4.2 0 -4.1 -1.5z"/>
  <path d="M273.5 195.8 c-0.3 -0.7 -0.6 -2.4 -0.7 -3.8 -0.3 -2.3 0 -2.5 3.6 -2.5 3.5 0 4 0.3 4.7 2.9 0.5 1.6 0.6 3.3 0.3 3.8 -0.8 1.3 -7.4 0.9 -7.9 -0.4z"/>
  <path d="M285 175.5 l0 -21.5 4 0 4 0 0 21.5 0 21.5 -4 0 -4 0 0 -21.5z"/>
  <path d="M295 193 c0 -3.8 0.2 -4 3 -4 1.7 0 3 -0.3 3 -0.7 0.1 -2.1 0.1 -23 0.1 -24 -0.1 -0.8 -1.4 -1.3 -3.1 -1.3 -2.9 0 -3 -0.2 -3 -4.5 l0 -4.5 4.3 0 c3.6 0 4.9 0.6 7.5 3.3 l3.2 3.3 0 15 0 15 -3.3 3.2 c-2.6 2.6 -4.1 3.2 -7.5 3.2 l-4.2 0 0 -4z"/>
  <path d="M314 193 l0 -4 4 0 4 0 0 4 0 4 -4 0 -4 0 0 -4z"/>
  <path d="M326.4 195.7 c-0.2 -0.7 -0.3 -10.2 -0.2 -21.2 l0.3 -20 3.8 -0.3 3.7 -0.3 0 21.5 0 21.6 -3.5 0 c-2 0 -3.8 -0.6 -4.1 -1.3z"/>
  <path d="M336.7 196.3 c-0.4 -0.3 -0.7 -2.1 -0.7 -3.9 0 -3 0.3 -3.3 3.3 -3.6 l3.2 -0.3 0.3 -12.7 0.3 -12.7 -3.3 -0.3 c-3.1 -0.3 -3.3 -0.5 -3.3 -4.3 0 -4 0 -4 4 -4.2 3.2 -0.3 4.6 0.3 7.3 2.7 l3.2 3 0 15.7 c0 15.7 0 15.7 -2.7 18.5 -2.1 2.2 -3.6 2.8 -6.8 2.8 -2.3 0 -4.5 -0.3 -4.8 -0.7z"/>
  <path d="M355 189.6 l0 -7.6 4.3 0 4.2 0 0 7.2 0 7.3 -4.3 0.3 -4.2 0.3 0 -7.5z"/>
  <path d="M365 193 l0 -4 5.5 0 5.5 0 0 4 0 4 -5.5 0 -5.5 0 0 -4z"/>
  <path d="M390.6 196.1 l-3 -0.6 -4.1 -20.3 c-2.2 -11.1 -3.9 -20.5 -3.6 -20.7 0.8 -0.9 7 -0.5 7.6 0.4 0.5 0.9 8.5 39.5 8.5 41.3 0 0.9 -1 0.9 -5.4 -0.1z"/>
  <path d="M67 193 c0 -2.3 0.4 -3 2 -3 1.6 0 2 0.7 2 3 0 2.3 -0.4 3 -2 3 -1.6 0 -2 -0.7 -2 -3z"/>
  <path d="M397.5 193.9 c-3 -12.9 -3.2 -16 -2 -22.1 0.7 -3.5 1.8 -8.9 2.5 -12 l1.1 -5.8 4 0 c2.6 0 3.9 0.4 3.9 1.4 0 2.2 -7.8 39.7 -8.4 40.3 -0.3 0.3 -0.8 -0.5 -1.1 -1.8z"/>
  <path d="M61 191 c0 -1.3 0.7 -2 1.9 -2 1.4 0 1.8 0.5 1.4 2 -0.3 1.1 -1.2 2 -1.9 2 -0.8 0 -1.4 -0.9 -1.4 -2z"/>
  <path d="M110.7 191.3 c-0.4 -0.3 -0.7 -1.9 -0.7 -3.5 0 -2.3 0.4 -2.8 2.5 -2.8 2.2 0 2.5 0.4 2.5 3.5 0 2.7 -0.4 3.5 -1.8 3.5 -1 0 -2.2 -0.3 -2.5 -0.7z"/>
  <path d="M93 184 c0 -3.8 -0.2 -4 -3 -4 -2.3 0 -3 0.4 -3 2 0 1.5 -0.7 2 -2.6 2 -2 0 -2.5 -0.4 -2 -1.6 0.3 -0.9 0.6 -2 0.6 -2.5 0 -0.5 2.8 -0.9 6.1 -0.9 l6.2 0 -0.7 -3.7 c-0.3 -2.1 -0.6 -4.5 -0.7 -5.3 0 -0.8 -0.6 0.5 -1.2 3 -1.1 4.2 -1.4 4.5 -4.9 4.8 -4.6 0.4 -4.6 0.3 -1.8 -13.3 1.1 -5.3 2 -9.9 2 -10.1 0 -0.2 2.4 -0.4 5.4 -0.4 l5.5 0 1.1 5.8 c0.7 3.1 2.2 10.5 3.4 16.5 1.2 5.9 2 10.9 1.8 11.2 -0.3 0.3 -3.2 0.5 -6.4 0.5 l-5.8 0 0 -4z m-1 -13 c0 -1.1 -0.7 -2 -1.5 -2 -0.8 0 -1.5 0.9 -1.5 2 0 1.1 0.7 2 1.5 2 0.8 0 1.5 -0.9 1.5 -2z"/>
  <path d="M140.1 174.8 l0 -13.3 2.1 5.5 c2.5 6.9 3.8 10 4.9 12.2 1.3 2.6 1.1 4.8 -0.5 4.8 -0.8 0 -1.8 0.9 -2.1 2 -0.3 1.1 -1.5 2 -2.6 2 -1.8 0 -1.9 -0.8 -1.8 -13.2z"/>
  <path d="M227 168 l0 -14 4 0 4 0 0 14 0 14 -4 0 -4 0 0 -14z"/>
  <path d="M237.2 178.3 c0.2 -3 0.8 -3.8 2.8 -4.3 2.2 -0.5 2.5 -1.2 2.8 -5.8 0.3 -5.2 0.3 -5.2 -2.7 -5.2 -3 0 -3.1 -0.1 -3.1 -4.5 l0 -4.5 3.8 0 c3 0 4.5 0.7 7 3.3 3.1 3.1 3.2 3.7 3.2 11.2 0 7.2 -0.2 8.1 -2.7 10.7 -2.1 2.2 -3.6 2.8 -7 2.8 l-4.4 0 0.3 -3.7z"/>
  <path d="M208 175.6 c0 -4.3 0.1 -4.5 3.1 -4.8 l3.2 -0.3 0.1 -8 0.1 -8 4 0 4 0 0.3 12.8 0.3 12.7 -7.6 0 -7.5 0 0 -4.4z"/>
  <path d="M355.2 167.3 l0.3 -12.8 4 0 4 0 0.1 11.5 c0 6.3 -0.2 12.1 -0.4 12.8 -0.2 0.7 -2.1 1.2 -4.3 1.2 l-4 0 0.3 -12.7z"/>
  <path d="M365.2 175.8 c0.3 -4.2 0.4 -4.3 4.1 -4.6 l3.7 -0.3 0 4.5 0 4.6 -4.1 0 -4 0 0.3 -4.2z"/>
  <path d="M128.2 176.5 c-0.7 -1.4 -1.2 -7.1 -1.2 -12.5 l0 -10 4 0 4 0 0 12.5 0 12.5 -2.8 0 c-2.1 0 -3.2 -0.7 -4 -2.5z"/>
  <path d="M185 165.5 c0 -1.6 -0.6 -2.5 -1.6 -2.5 -1.2 0 -1.4 -0.9 -1.2 -4.2 0.3 -3.6 0.7 -4.4 2.7 -4.6 1.6 -0.3 3.4 0.7 5.7 2.9 2.7 2.6 3.4 4.1 3.4 7.1 l0 3.8 -4.5 0 c-4.1 0 -4.5 -0.2 -4.5 -2.5z"/>
  <path d="M365.4 161.6 c-0.3 -0.8 -0.4 -2.7 -0.2 -4.3 0.3 -2.6 0.6 -2.8 5.5 -3.1 5.6 -0.3 6.3 0.4 5.5 6.1 -0.4 2.5 -0.7 2.7 -5.3 2.7 -3.4 0 -5.1 -0.5 -5.5 -1.4z"/>
  <path d="M110.2 158.3 c0.3 -3.5 0.6 -3.8 3.6 -4.1 3.1 -0.3 3.2 -0.2 3.2 3.7 0 4 -0.1 4.1 -3.6 4.1 -3.5 0 -3.5 -0.1 -3.2 -3.7z"/>
 </g>
 <g fill="#171718">
  <path d="M60.8 196.3 c-3.6 -0.4 -3.8 -0.6 -3.8 -3.9 0 -3.2 0.2 -3.4 3.4 -3.4 3.2 0 3.4 0.2 3.8 4 0.2 2.2 0.3 3.9 0.3 3.8 0 -0.1 -1.7 -0.3 -3.7 -0.5z"/>
  <path d="M71.9 196.2 c-2.8 -0.2 -3.8 -0.8 -4.3 -2.5 -1.1 -4.3 -0.8 -4.7 4.4 -4.7 l5 0 0 3.4 c0 4 -0.3 4.2 -5.1 3.8z"/>
  <path d="M83.8 196.2 c-2.6 -0.2 -3.8 -0.8 -3.8 -1.8 0 -1.7 1.9 -10.1 2.7 -12.4 0.4 -0.8 0.5 -1.8 0.5 -2.2 -0.1 -0.5 2.5 -0.8 5.9 -0.8 l6.1 0 -0.4 -3.7 c-0.3 -3.6 -0.3 -3.6 3.6 -3.7 2.3 -0.1 4.1 0.4 4.3 1.2 0.3 0.6 -0.2 1.2 -1.1 1.2 -2.3 0 -2 1.7 0.5 2.3 2.7 0.7 1.9 3.3 -1 3 -1.1 -0.2 -2.1 0.2 -2.1 0.7 0 0.6 -0.7 1 -1.5 1 -1.8 0 -2 1.6 -0.2 2.3 0.9 0.4 0.9 0.6 0 0.6 -0.7 0.1 -1 0.8 -0.7 1.6 0.8 2.1 2.4 1.9 2.5 -0.2 0 -1.5 0.2 -1.5 0.9 0.2 0.6 1.3 0.9 1.5 0.9 0.5 0.1 -1 0.4 -1.1 0.9 -0.4 0.4 0.6 1.4 1.4 2.2 1.7 0.8 0.3 -2 0.6 -6.3 0.6 -5.3 0.1 -7.9 0.5 -8.1 1.4 -0.2 0.6 -0.8 2.6 -1.2 4.2 -0.8 2.7 -1.2 3 -4.6 2.7z"/>
  <path d="M99.9 196.1 c0.7 -0.5 1 -1.4 0.7 -2 -0.4 -0.6 -1.2 -0.9 -1.7 -0.6 -0.5 0.4 -0.9 0.1 -0.9 -0.4 0 -0.6 0.5 -1.1 1.1 -1.1 0.8 0 0.8 -0.5 -0.1 -1.5 -1.1 -1.3 -0.7 -1.5 2.8 -1.5 4.2 0 5.2 1 5.2 5.6 0 2.2 -0.4 2.4 -4.2 2.4 -2.9 0 -3.8 -0.3 -2.9 -0.9z"/>
  <path d="M113.2 193.7 l-3.2 -3.3 0.2 -18 0.3 -17.9 4 0 4 0 0.3 17.3 c0.1 9.4 0.6 17.2 1.1 17.2 0.5 0 1.1 1.8 1.3 4 0.3 3.7 0.2 4 -2.2 4 -1.6 0 -3.8 -1.2 -5.8 -3.3z"/>
  <path d="M124.9 192.8 c0.3 -2.4 1 -4.1 1.6 -3.8 0.6 0.3 0.9 0.9 0.7 1.3 -0.1 0.5 0.3 0.5 0.9 0.2 0.8 -0.5 0.8 -1 0 -1.8 -0.7 -0.7 -1.1 -4.9 -1 -10.6 0.1 -5.3 0.3 -8.8 0.6 -7.8 0.2 0.9 1.1 1.7 2 1.7 1.3 0 1.5 -1.1 0.9 -8 -0.5 -5.7 -0.4 -8 0.4 -8 0.8 0 1.1 2.8 1 8.7 -0.2 11.6 -0.2 11.3 1.5 11.3 2.3 0 2 6.7 -0.2 7.3 -1.7 0.4 -1.7 0.5 0 0.6 2.1 0.1 2.3 2.1 0.2 2.1 -0.8 0 -1.5 0.7 -1.5 1.5 0 0.8 0.7 1.5 1.5 1.5 2.1 0 1.9 0.6 -1.1 4.6 -1.9 2.4 -3.4 3.4 -5.3 3.4 -2.6 0 -2.7 -0.2 -2.2 -4.2z"/>
  <path d="M146.7 195 c0.4 -1.4 0 -2 -1.1 -2 -0.9 0 -1.6 0.7 -1.6 1.5 0 2.2 -2.8 1.8 -3.5 -0.4 -0.8 -2.7 -0.3 -11.1 0.7 -11.1 1 0 1.1 -3.4 0.2 -4.3 -0.4 -0.4 -0.8 -2 -0.9 -3.7 -0.2 -2.5 0.1 -3 1.9 -2.9 1.1 0 1.5 0.3 0.9 0.6 -2.2 0.8 -1.5 3.6 0.7 3 1.3 -0.3 2 0 2 0.9 0 0.8 -0.4 1.4 -1 1.4 -0.5 0 -1 0.7 -1 1.6 0 1.1 0.6 1.5 2 1.1 1.9 -0.5 2 0 2 7.3 0 4.4 -0.4 8.1 -0.9 8.4 -0.5 0.4 -0.7 -0.3 -0.4 -1.4z"/>
  <path d="M161 196.4 c3.3 -0.6 4 -2 1.3 -2.7 -1.6 -0.4 -1.6 -0.5 -0.1 -0.6 0.9 0 1.9 -0.9 2.2 -1.8 0.2 -1 0.4 -0.2 0.3 1.7 -0.2 3.2 -0.5 3.5 -3.4 3.8 -3.3 0.2 -3.3 0.2 -0.3 -0.4z"/>
  <path d="M171.4 193.8 l-2.9 -3.3 3 2.7 c1.7 1.4 3.9 2.8 5 3.1 1.9 0.5 1.9 0.5 -0.1 0.6 -1.1 0 -3.3 -1.3 -5 -3.1z"/>
  <path d="M174.8 191.9 c-2.4 -1.4 -2.3 -2.9 0.3 -2.9 1.3 0 1.8 -0.4 1.3 -1.2 -0.5 -0.7 -0.3 -0.8 0.5 -0.3 0.9 0.5 0.9 1.1 0.3 1.7 -0.6 0.6 -0.8 1.7 -0.5 2.4 0.6 1.6 0.4 1.7 -1.9 0.3z"/>
  <path d="M153.3 187.8 c0 -1.8 -0.3 -4.4 -0.7 -5.8 -0.5 -2 -0.4 -2 0.8 0.5 1.6 3.3 2.1 8.5 0.8 8.5 -0.5 0 -0.9 -1.5 -0.9 -3.2z"/>
  <path d="M60.3 186.3 l-3.3 -0.4 0 -16 0 -15.9 4 0 4 0 0 16.5 c0 9.1 -0.3 16.4 -0.7 16.3 -0.5 0 -2.3 -0.3 -4 -0.5z"/>
  <path d="M228.5 184.9 c-1.5 -0.6 -1.1 -0.8 1.8 -0.8 2 -0.1 3.7 0.1 3.7 0.3 0 0.9 -3.7 1.2 -5.5 0.5z"/>
  <path d="M84.3 175 c-0.1 -1.6 0.2 -3.2 0.7 -3.5 0.5 -0.3 0.7 -1.2 0.3 -2 -0.3 -0.9 0 -2.1 0.6 -2.9 0.6 -0.7 0.8 -1.6 0.5 -1.9 -0.4 -0.3 -0.3 -1.4 0.1 -2.4 0.4 -1 0.8 -2.7 0.9 -3.8 0.1 -1.3 0.8 -2 2.1 -2.1 3.7 -0.2 4 -0.6 1 -1.4 -2.4 -0.6 -1.7 -0.8 3 -0.8 4.5 0 5.3 0.2 3 0.8 l-3 0.7 2.9 0.4 c1.6 0.2 3.1 0.9 3.3 1.6 0.3 0.7 -0.3 0.9 -1.6 0.6 -3 -0.8 -2.6 1.6 0.4 2.7 1.4 0.5 2.5 1.6 2.5 2.4 0 0.9 -0.6 1.3 -1.4 1 -0.7 -0.3 -1.6 0.2 -1.9 1 -0.5 1.2 0 1.6 1.8 1.6 1.4 0 2.5 0.6 2.5 1.3 0 1.5 -4.2 1.8 -5.2 0.3 -0.5 -0.7 -0.8 -0.6 -0.8 0.3 0 0.7 -0.6 1.1 -1.5 0.7 -1 -0.4 -1.5 0.1 -1.5 1.4 0 4.2 -2.2 7 -5.4 7 -2.7 0 -3.1 -0.4 -3.3 -3z m6.7 -12.2 c0 -0.5 -0.7 -0.8 -1.5 -0.8 -1.5 0 -2 2.1 -0.8 3.3 0.7 0.7 2.3 -1.1 2.3 -2.5z m6 1.3 c0 -0.5 0.8 -1.2 1.8 -1.4 0.9 -0.3 0 -0.5 -2.1 -0.6 -3.2 -0.1 -3.6 0.1 -2.5 1.4 1.5 1.6 2.8 1.9 2.8 0.6z"/>
  <path d="M147.9 175.3 c-0.1 -0.5 -0.1 -1.1 0 -1.5 0 -0.5 -0.3 -0.8 -0.9 -0.8 -0.5 0 -0.7 -0.7 -0.3 -1.6 0.3 -1 0 -2.2 -0.8 -2.8 -0.8 -0.6 -1.5 -2.6 -1.5 -4.5 -0.1 -3.1 0 -3.2 1 -1.2 0.7 1.2 1.5 1.8 1.9 1.5 0.4 -0.4 0.7 0.8 0.7 2.7 0 1.9 0.7 4.3 1.5 5.3 1.4 1.9 1.2 3.6 -0.6 3.6 -0.5 0 -1 -0.3 -1 -0.7z"/>
  <path d="M156.1 166.5 c0 -2.7 0.3 -4.3 0.6 -3.5 0.3 0.8 0.9 1.7 1.3 2 0.4 0.3 0.1 1.9 -0.6 3.5 -1.3 3 -1.3 3 -1.3 -2z"/>
  <path d="M127.2 160.3 l-0.2 -6.3 4.2 0 c4.7 0 4.8 0.6 0.3 1.2 -2.8 0.3 -3 0.6 -3.6 5.8 l-0.6 5.5 -0.1 -6.2z"/>
  <path d="M147.8 158.3 c-2.1 -0.5 -2.4 -2.2 -0.5 -2.4 0.6 -0.1 -0.6 -0.5 -2.8 -0.9 l-4 -0.8 3.9 0.2 c3 0.1 4.1 0.6 4.7 2.4 0.5 1.2 0.7 2.1 0.6 2.1 -0.1 -0.1 -1 -0.3 -1.9 -0.6z"/>
  <path d="M189 156.5 c-1.5 -1.8 -3.7 -2 -4.2 -0.3 -0.3 0.7 -0.7 0.6 -1.1 -0.5 -0.9 -2.5 3.5 -2.2 5.8 0.3 1 1.1 1.6 2 1.3 2 -0.3 0 -1.1 -0.7 -1.8 -1.5z"/>
 </g>
 <g fill="#ffffff">
  <path d="M108 224 c0 -1.1 0.5 -2 1 -2 0.6 0 1 0.9 1 2 0 1.1 -0.4 2 -1 2 -0.5 0 -1 -0.9 -1 -2z"/>
  <path d="M76 192.7 c0.4 -4.1 0.5 -4.1 0.8 -0.8 0.2 1.8 0 3.7 -0.5 4.2 -0.5 0.5 -0.6 -1.1 -0.3 -3.4z"/>
  <path d="M100.8 196.3 c1.2 -0.2 3.2 -0.2 4.5 0 1.2 0.2 0.2 0.4 -2.3 0.4 -2.5 0 -3.5 -0.2 -2.2 -0.4z"/>
  <path d="M117.3 196.3 c0.9 -0.2 2.5 -0.2 3.5 0 0.9 0.3 0.1 0.5 -1.8 0.5 -1.9 0 -2.7 -0.2 -1.7 -0.5z"/>
  <path d="M126.5 196.3 c1.7 -0.3 3.7 -1 4.5 -1.6 1.3 -1 1.3 -1 0.1 0.6 -0.8 1 -2.5 1.6 -4.5 1.6 l-3.1 -0.2 3 -0.4z"/>
  <path d="M146.8 190.8 c0.5 -10.7 0.9 -11.7 1.1 -2.5 0 4.8 -0.2 8.7 -0.6 8.7 -0.5 0 -0.7 -2.8 -0.5 -6.2z"/>
  <path d="M155.7 196.3 c-0.3 -0.4 1.5 -0.6 3.9 -0.4 l4.4 0.3 0 -20.6 0 -20.6 -3.5 0 -3.5 0 0 10.8 c0 5.9 -0.4 10.2 -0.8 9.6 -0.4 -0.7 -0.5 -5.6 -0.2 -11 l0.5 -9.9 4 0 4 0 0 21 0 21 -4.2 0.3 c-2.2 0.2 -4.3 -0.1 -4.6 -0.5z"/>
  <path d="M171.4 193.8 l-2.9 -3.3 3 2.7 c1.7 1.4 4.4 2.8 6 3.1 l3 0.4 -3.1 0.2 c-2.3 0.1 -3.8 -0.7 -6 -3.1z"/>
  <path d="M183.3 196.3 c0.9 -0.2 2.5 -0.2 3.5 0 0.9 0.3 0.1 0.5 -1.8 0.5 -1.9 0 -2.7 -0.2 -1.7 -0.5z"/>
  <path d="M199.8 196.3 c1.2 -0.2 3.2 -0.2 4.5 0 1.2 0.2 0.2 0.4 -2.3 0.4 -2.5 0 -3.5 -0.2 -2.2 -0.4z"/>
  <path d="M214.4 195.7 c-0.3 -0.8 -0.3 -4.3 -0.1 -7.8 l0.3 -6.4 0.2 7.3 0.2 7.2 3.5 0 3.4 0 0.4 -6.7 0.3 -6.8 0 7 -0.1 7 -3.8 0.3 c-2.5 0.2 -3.9 -0.1 -4.3 -1.1z"/>
  <path d="M228.8 196.3 c1.2 -0.2 3.2 -0.2 4.5 0 1.2 0.2 0.2 0.4 -2.3 0.4 -2.5 0 -3.5 -0.2 -2.2 -0.4z"/>
  <path d="M257.5 196.3 c2.2 -0.3 4.4 -1 4.8 -1.6 0.6 -0.8 0.7 -0.7 0.4 0.3 -0.2 1 -1.8 1.5 -4.8 1.6 -4.4 0.1 -4.4 0.1 -0.4 -0.3z"/>
  <path d="M273.7 196.3 c-0.3 -0.5 1 -0.7 3 -0.5 2.3 0.3 3.9 0 4.5 -0.9 0.8 -1.2 0.9 -1.1 0.5 0.1 -0.4 1.6 -7.2 2.7 -8 1.3z"/>
  <path d="M286.8 196.3 c1.2 -0.2 3.2 -0.2 4.5 0 1.2 0.2 0.2 0.4 -2.3 0.4 -2.5 0 -3.5 -0.2 -2.2 -0.4z"/>
  <path d="M297.3 196.3 c1.5 -0.2 3.7 -0.2 5 0 1.2 0.2 0 0.4 -2.8 0.4 -2.7 0 -3.8 -0.2 -2.2 -0.4z"/>
  <path d="M315.8 196.3 c1.2 -0.2 3.2 -0.2 4.5 0 1.2 0.2 0.2 0.4 -2.3 0.4 -2.5 0 -3.5 -0.2 -2.2 -0.4z"/>
  <path d="M326.4 195.7 c-0.2 -0.7 -0.3 -10.2 -0.2 -21.2 l0.3 -20 3.8 -0.1 3.7 -0.1 -3.5 0.4 -3.5 0.4 0 20.4 0 20.4 3.8 0.4 3.7 0.4 -3.8 0.1 c-2.3 0.1 -4 -0.3 -4.3 -1.1z"/>
  <path d="M336.4 195.6 c-0.3 -0.8 -0.4 -2.7 -0.1 -4.3 0.3 -2.3 0.4 -2.2 0.6 1 0.1 3.7 0.1 3.7 4.3 3.7 3.2 0 4.9 -0.7 7.2 -2.7 l3.1 -2.8 -2.9 3.3 c-2.5 2.7 -3.7 3.2 -7.3 3.2 -2.8 0 -4.6 -0.5 -4.9 -1.4z"/>
  <path d="M355.2 189.3 l0.2 -7.8 0.3 7.3 0.4 7.2 3.4 0 c1.8 0 3.6 -0.5 3.8 -1 0.3 -0.6 0.4 -0.5 0.3 0.2 -0.1 0.8 -2.1 1.4 -4.4 1.6 l-4.2 0.3 0.2 -7.8z"/>
  <path d="M365.2 192.8 l0.1 -4.3 0.4 3.7 c0.4 3.7 0.4 3.7 5.6 4.1 l5.2 0.3 -5.7 0.2 -5.8 0.2 0.2 -4.2z"/>
  <path d="M272.4 190.8 c0.2 -0.8 1.8 -1.3 4.1 -1.3 2.3 0 3.9 0.5 4.1 1.3 0.1 0.7 0 0.8 -0.3 0.2 -0.2 -0.5 -2 -1 -3.8 -1 -1.8 0 -3.6 0.5 -3.8 1 -0.3 0.6 -0.4 0.5 -0.3 -0.2z"/>
  <path d="M110.5 172.8 l0 -18.3 4 0 4 0 0 16.5 0.1 16.5 -0.3 -16.2 -0.3 -16.3 -3.5 0 -3.5 0 -0.3 18 -0.3 18 0.1 -18.2z"/>
  <path d="M193.3 187 c0 -2.5 0.2 -3.5 0.4 -2.2 0.2 1.2 0.2 3.2 0 4.5 -0.2 1.2 -0.4 0.2 -0.4 -2.3z"/>
  <path d="M309.4 175.5 c0 -8.8 0.2 -12.3 0.3 -7.7 0.2 4.6 0.2 11.8 0 16 -0.1 4.2 -0.3 0.5 -0.3 -8.3z"/>
  <path d="M99.8 189.3 c1.2 -0.2 3.2 -0.2 4.5 0 1.2 0.2 0.2 0.4 -2.3 0.4 -2.5 0 -3.5 -0.2 -2.2 -0.4z"/>
  <path d="M89 187.8 c0 -0.3 3.8 -0.8 8.5 -1 4.6 -0.2 8.1 0 7.7 0.4 -0.9 0.9 -16.2 1.5 -16.2 0.6z"/>
  <path d="M126.8 171.4 l0.3 -17.4 4.2 0.2 4.2 0.1 -3.7 0.4 -3.8 0.4 0 16.4 c0 9 -0.3 16.6 -0.7 16.8 -0.5 0.3 -0.7 -7.3 -0.5 -16.9z"/>
  <path d="M63.8 171.1 l0.3 -16 -3.8 -0.4 -3.8 -0.4 4.3 -0.1 4.2 -0.2 0 16.5 c0 9.1 -0.3 16.5 -0.7 16.5 -0.5 0 -0.7 -7.2 -0.5 -15.9z"/>
  <path d="M301.4 177 c0 -5.2 0.1 -7.4 0.3 -4.7 0.2 2.6 0.2 6.8 0 9.5 -0.2 2.6 -0.3 0.4 -0.3 -4.8z"/>
  <path d="M228.8 184.3 c1.2 -0.2 3.2 -0.2 4.5 0 1.2 0.2 0.2 0.4 -2.3 0.4 -2.5 0 -3.5 -0.2 -2.2 -0.4z"/>
  <path d="M245 181.7 c0 -0.2 1.5 -1.6 3.3 -3.3 l3.2 -2.9 -2.9 3.3 c-2.8 3 -3.6 3.7 -3.6 2.9z"/>
  <path d="M257.9 179.7 c0.4 -0.4 3.5 -0.7 6.7 -0.5 l5.9 0.3 -6.7 0.5 c-3.7 0.3 -6.3 0.1 -5.9 -0.3z"/>
  <path d="M88.5 179.3 c3.3 -0.2 6.3 -1 6.7 -1.6 0.5 -0.8 0.8 -0.6 0.8 0.6 0 1.5 -0.9 1.7 -6.7 1.5 l-6.8 -0.2 6 -0.3z"/>
  <path d="M214.8 179.3 l7.2 -0.4 0 -11.9 0 -12 -3.5 0 -3.4 0 -0.4 6.8 -0.3 6.7 0 -7 0.1 -7 4 0 4 0 0.3 12.8 0.3 12.7 -7.8 -0.2 -7.8 -0.2 7.3 -0.3z"/>
  <path d="M355.2 167.3 l0.3 -12.8 3.4 -0.3 c1.8 -0.2 3.7 0 4.2 0.5 0.5 0.5 -0.9 0.7 -3.1 0.5 l-4 -0.4 0 12 0 12.1 3.8 0.4 3.7 0.4 -4.3 0.1 -4.3 0.2 0.3 -12.7z"/>
  <path d="M365.2 175.8 c0.3 -4.2 0.4 -4.3 4.1 -4.4 l3.7 -0.1 -3.5 0.4 c-3.2 0.4 -3.5 0.7 -3.5 3.8 0 3.2 0.2 3.4 3.8 3.8 l3.7 0.4 -4.3 0.1 -4.3 0.2 0.3 -4.2z"/>
  <path d="M85.8 177.3 c1.2 -0.2 3 -0.2 4 0 0.9 0.3 -0.1 0.5 -2.3 0.4 -2.2 0 -3 -0.2 -1.7 -0.4z"/>
  <path d="M259.8 177.3 c1.2 -0.2 3.2 -0.2 4.5 0 1.2 0.2 0.2 0.4 -2.3 0.4 -2.5 0 -3.5 -0.2 -2.2 -0.4z"/>
  <path d="M208 171.6 c0 -0.2 1.6 -0.6 3.5 -0.8 1.9 -0.2 3.5 0 3.5 0.4 0 0.4 -1.6 0.8 -3.5 0.8 -1.9 0 -3.5 -0.2 -3.5 -0.4z"/>
  <path d="M363.2 167 c0 -1.9 0.2 -2.7 0.5 -1.7 0.2 0.9 0.2 2.5 0 3.5 -0.3 0.9 -0.5 0.1 -0.5 -1.8z"/>
  <path d="M185 165.5 c0 -1.6 -0.6 -2.5 -1.5 -2.5 -0.8 0 -1.5 -0.5 -1.5 -1 0 -0.7 0.6 -0.7 2 0 1.7 0.9 3 6 1.5 6 -0.3 0 -0.5 -1.1 -0.5 -2.5z"/>
  <path d="M193.3 164 c0 -2.5 0.2 -3.5 0.4 -2.2 0.2 1.2 0.2 3.2 0 4.5 -0.2 1.2 -0.4 0.2 -0.4 -2.3z"/>
  <path d="M176.4 164 c0.1 -0.8 1 -1.6 2.1 -1.7 1.5 -0.1 1.5 0 0.3 0.3 -0.9 0.3 -1.9 1.1 -2.1 1.7 -0.2 0.7 -0.3 0.5 -0.3 -0.3z"/>
  <path d="M301 164.2 c0 -0.7 -1.5 -1.3 -3.2 -1.3 -3.2 -0.2 -3.3 -0.2 -0.4 -0.6 2.8 -0.5 5.6 1.1 4.3 2.4 -0.4 0.3 -0.7 0.1 -0.7 -0.5z"/>
  <path d="M336.4 161.6 c-0.3 -0.8 -0.4 -2.7 -0.2 -4.3 0.3 -2.5 0.7 -2.8 4.3 -2.9 l4 -0.1 -3.7 0.4 c-3.6 0.4 -3.8 0.6 -3.8 3.8 0 2.9 0.4 3.4 2.8 3.8 l2.7 0.4 -2.8 0.2 c-1.6 0 -3 -0.5 -3.3 -1.3z"/>
  <path d="M365.4 161.6 c-0.3 -0.8 -0.4 -2.7 -0.2 -4.3 0.3 -2.7 0.5 -2.8 5.8 -2.9 l5.5 -0.1 -5.2 0.4 c-5.3 0.4 -5.3 0.4 -5.3 3.8 0 3.4 0 3.4 5.3 3.8 l5.2 0.3 -5.3 0.2 c-3.7 0.1 -5.4 -0.2 -5.8 -1.2z"/>
  <path d="M171.4 157.3 c2.2 -2.5 3.7 -3.3 6 -3.2 l3.1 0.2 -3 0.4 c-1.6 0.3 -4.3 1.7 -6 3.1 l-3 2.7 2.9 -3.2z"/>
  <path d="M189.6 157.1 c-1 -1.1 -3 -2.2 -4.5 -2.4 l-2.6 -0.4 2.6 -0.2 c1.6 0 3.4 0.9 4.9 2.4 1.3 1.4 2.1 2.5 1.8 2.5 -0.3 0 -1.3 -0.9 -2.2 -1.9z"/>
  <path d="M273 156.1 c0 -0.9 -1.5 -1.2 -5.4 -0.9 -3 0.1 -5.2 0 -4.9 -0.4 0.7 -1.2 10.1 -0.9 10.8 0.3 0.4 0.6 0.4 1.3 0.1 1.6 -0.3 0.4 -0.6 0.1 -0.6 -0.6z"/>
  <path d="M144.5 155 l-4 -0.7 3.7 -0.2 c2 0 4 0.4 4.3 0.9 0.3 0.6 0.5 0.9 0.3 0.9 -0.2 -0.1 -2.1 -0.5 -4.3 -0.9z"/>
  <path d="M379.9 154.7 c0.5 -0.5 2.4 -0.7 4.2 -0.5 3.3 0.3 3.3 0.4 -0.8 0.8 -2.3 0.3 -3.9 0.2 -3.4 -0.3z"/>
  <path d="M90.8 154.3 c1.8 -0.2 4.5 -0.2 6 0 1.5 0.2 0 0.4 -3.3 0.4 -3.3 0 -4.5 -0.2 -2.7 -0.4z"/>
  <path d="M199.8 154.3 c1.2 -0.2 3.2 -0.2 4.5 0 1.2 0.2 0.2 0.4 -2.3 0.4 -2.5 0 -3.5 -0.2 -2.2 -0.4z"/>
  <path d="M228.8 154.3 c1.2 -0.2 3.2 -0.2 4.5 0 1.2 0.2 0.2 0.4 -2.3 0.4 -2.5 0 -3.5 -0.2 -2.2 -0.4z"/>
  <path d="M238.8 154.3 c1.2 -0.2 3.2 -0.2 4.5 0 1.2 0.2 0.2 0.4 -2.3 0.4 -2.5 0 -3.5 -0.2 -2.2 -0.4z"/>
  <path d="M286.8 154.3 c1.2 -0.2 3.2 -0.2 4.5 0 1.2 0.2 0.2 0.4 -2.3 0.4 -2.5 0 -3.5 -0.2 -2.2 -0.4z"/>
  <path d="M297.3 154.3 c1.5 -0.2 3.7 -0.2 5 0 1.2 0.2 0 0.4 -2.8 0.4 -2.7 0 -3.8 -0.2 -2.2 -0.4z"/>
  <path d="M400.8 154.3 c1.2 -0.2 3.2 -0.2 4.5 0 1.2 0.2 0.2 0.4 -2.3 0.4 -2.5 0 -3.5 -0.2 -2.2 -0.4z"/>
  <path d="M200.7 87.8 c-4.7 -3.6 -3.8 -11 1.6 -13.6 2.4 -1.2 3.3 -1.1 6.5 0.5 3.3 1.6 3.7 2.3 4 6 0.2 3.2 -0.2 4.6 -1.9 6.2 -2.5 2.4 -7.6 2.8 -10.2 0.9z"/>
  <path d="M254 87 c-3 -3 -3 -8.3 0 -11.4 2.3 -2.4 7 -2.5 10.4 -0.2 3.5 2.2 3.7 8.5 0.4 11.6 -2.8 2.6 -8.2 2.6 -10.8 0z"/>
 </g>
</svg>